<?xml version="1.0" encoding="utf-8"?>
<!-- Generator: Adobe Illustrator 24.0.1, SVG Export Plug-In . SVG Version: 6.00 Build 0)  -->
<svg version="1.1" id="Layer_1" xmlns="http://www.w3.org/2000/svg" xmlns:xlink="http://www.w3.org/1999/xlink" x="0px" y="0px"
	 viewBox="0 0 500 399.61" style="enable-background:new 0 0 500 399.61;" xml:space="preserve">
<style type="text/css">
	.st0{fill:#ECECEC;}
	.st1{fill:#F0F0F0;}
	.st2{fill:#F5F5F5;}
	.st3{fill:#E7E7E7;}
	.st4{fill:#007CFF;}
	.st5{fill:#0064FF;}
	.st6{opacity:0.2;}
	.st7{fill:#FFFFFF;}
	.st8{fill:#FFC3BD;}
	.st9{fill:#1A2E35;}
	.st10{opacity:0.3;}
	.st11{fill:#FF847F;}
</style>
<title>404</title>
<g>
	<rect x="-1" y="340.14" class="st0" width="500" height="0.25"/>
	<rect x="415.78" y="356.24" class="st0" width="33.12" height="0.25"/>
	<rect x="321.53" y="358.95" class="st0" width="8.69" height="0.25"/>
	<rect x="395.59" y="346.95" class="st0" width="19.19" height="0.25"/>
	<rect x="51.46" y="348.63" class="st0" width="43.19" height="0.25"/>
	<rect x="103.56" y="348.63" class="st0" width="6.33" height="0.25"/>
	<rect x="130.47" y="352.85" class="st0" width="93.68" height="0.25"/>
	<path class="st0" d="M236.01,295.54H42.92c-3.15,0-5.71-2.56-5.71-5.71V18.4c0-3.15,2.56-5.71,5.71-5.71h193.1
		c3.15,0,5.71,2.56,5.71,5.71v271.43C241.72,292.98,239.16,295.54,236.01,295.54z M42.92,12.95c-3.01,0-5.46,2.45-5.46,5.46v271.43
		c0,3.01,2.45,5.46,5.46,5.46h193.1c3.01,0,5.46-2.45,5.46-5.46V18.4c0-3.01-2.45-5.46-5.46-5.46H42.92z"/>
	<path class="st0" d="M452.31,295.54h-193.1c-3.15,0-5.71-2.56-5.71-5.71V18.4c0-3.15,2.56-5.71,5.71-5.71h193.1
		c3.15,0,5.71,2.56,5.71,5.71v271.43C458.02,292.98,455.46,295.54,452.31,295.54z M259.21,12.95c-3.01,0-5.46,2.45-5.46,5.46v271.43
		c0,3.01,2.45,5.46,5.46,5.46h193.1c3.01,0,5.46-2.45,5.46-5.46V18.4c0-3.01-2.45-5.46-5.46-5.46H259.21z"/>
</g>
<g>
	<path class="st1" d="M377.24,338.38c-1.41-9.6-7.72-17.01-14.12-16.54c-2.4,0.19-4.47,1.44-6.04,3.44
		c-7.96-11.94-18.98-19.28-30.09-18.47c-5.64,0.39-10.66,2.86-14.81,6.88c-7.01-18.03-18.94-30.81-30.3-30.81
		c-6.45,0-11.68,4.14-15.12,11.04c-9.07-12.1-19.85-19.54-30.29-19.54c-16.65,0-27.58,18.89-28.53,45.42
		c-4.19,5-19.36,11.99-21.27,20.35h190.78C377.39,339.56,377.33,338.98,377.24,338.38z"/>
	<path class="st1" d="M239.77,322.62c-2.28,0.19-4.26,1.66-5.8,4.02c-7.11-13.99-17.24-22.58-27.7-21.63
		c-5.33,0.46-10.14,3.37-14.14,8.07c-0.02,0.03-0.02,0-0.02,0c-6.01-21.09-16.83-36.03-27.52-36.03c-6.08,0-11.12,4.84-14.56,12.91
		c-8.14-14.18-18.04-22.88-27.87-22.88c-12.18,0-21.47,13.37-25.81,33.94c-4.13-5.98-8.85-9.51-13.55-9.51
		c-6.51,0-11.53,6.77-14.1,17.36c-0.57,0-1.15,0.05-1.74,0.16c-10.45,1.77-18.25,15.46-18.05,31.11h203.42
		C250.9,329.82,245.48,322.1,239.77,322.62z"/>
	
		<ellipse transform="matrix(0.9732 -0.2298 0.2298 0.9732 -31.3138 85.3105)" class="st2" cx="350.69" cy="177.13" rx="43.62" ry="43.62"/>
	<path class="st0" d="M430.54,86.08c-1.62-4.83-6.81-8.11-13.98-8.11c-9.31,0-18.81,5.54-22.59,12.82c-1.31-0.6-2.91-0.93-4.69-0.93
		c-6.35,0-12.83,4.21-14.48,9.39c-0.15,0.48-0.26,0.97-0.32,1.43h62.52c0.75-1.07,1.33-2.21,1.71-3.39
		C440.5,91.62,436.91,86.93,430.54,86.08z"/>
	<path class="st2" d="M74.62,192.75c1.2-3.58,5.05-6.01,10.36-6.01c6.9,0,13.94,4.1,16.74,9.5c0.97-0.44,2.15-0.69,3.48-0.69
		c4.71,0,9.51,3.12,10.73,6.96c0.11,0.36,0.19,0.72,0.24,1.06H69.84c-0.56-0.79-0.99-1.64-1.27-2.51
		C67.24,196.86,69.9,193.38,74.62,192.75z"/>
	<path class="st2" d="M359.77,35.37c2.74-2.82,6.99-4.74,11.18-4.74c5.44,0,8.93,3.24,8.44,7.49c0.99-0.35,2.04-0.54,3.09-0.54
		c3.71,0,5.93,2.46,4.97,5.49c-0.09,0.28-0.21,0.57-0.34,0.84h-36.52c-0.04-0.62,0.04-1.29,0.26-1.98
		C351.89,38.61,355.73,35.87,359.77,35.37z"/>
	<path class="st2" d="M160.4,44.59c1.75-1.8,4.46-3.02,7.13-3.02c3.47,0,5.69,2.06,5.38,4.77c0.63-0.22,1.3-0.35,1.97-0.35
		c2.37,0,3.78,1.57,3.17,3.5c-0.06,0.18-0.13,0.36-0.22,0.53h-23.28c-0.03-0.4,0.03-0.82,0.17-1.26
		C155.38,46.65,157.83,44.9,160.4,44.59z"/>
	<path class="st0" d="M145.28,126.64c-0.46,0-0.92,0.03-1.37,0.08c-0.92-4.02-4.96-6.83-10.69-6.83c-1.54,0-3.09,0.2-4.59,0.57
		c-1.47-5.13-6.82-8.65-14.29-8.65c-9.11,0-18.4,5.24-22.47,12.24c-5.56,0.9-10.74,4.73-12.2,9.3c-0.16,0.49-0.26,0.98-0.33,1.45
		h73.26l0.02-0.06C154.06,130.28,150.76,126.64,145.28,126.64z"/>
	<g>
		<polygon class="st3" points="290.25,239.15 295.55,235.85 300.88,240.2 299.87,340.14 291.23,340.14 		"/>
		<polygon class="st3" points="268.55,242.56 263.25,235.85 257.91,240.2 258.92,340.14 267.57,340.14 		"/>
		<polygon class="st3" points="236.22,239.15 230.91,235.85 225.58,240.2 226.59,340.14 235.24,340.14 		"/>
		<polygon class="st3" points="193.25,242.56 198.55,235.85 203.88,240.2 202.87,340.14 194.23,340.14 		"/>
		<polygon class="st3" points="419.58,239.15 424.88,235.85 430.21,240.2 429.2,340.14 420.55,340.14 		"/>
		<polygon class="st3" points="397.88,242.56 392.57,235.85 387.24,240.2 388.25,340.14 396.9,340.14 		"/>
		<polygon class="st3" points="365.54,239.15 360.24,235.85 354.91,240.2 355.92,340.14 364.56,340.14 		"/>
		<polygon class="st3" points="322.58,242.56 327.88,235.85 333.21,240.2 332.2,340.14 323.56,340.14 		"/>
		<polygon class="st3" points="189.8,265.56 439.77,265.69 439.54,262.41 189.81,261.85 		"/>
	</g>
</g>
<ellipse id="_x3C_Path_x3E__190_" class="st2" cx="249" cy="373.98" rx="193.89" ry="11.32"/>
<g>
	<rect x="328.62" y="221.85" class="st4" width="1" height="17.89"/>
	<rect x="328.62" y="210.08" class="st4" width="1" height="6"/>
	<path class="st5" d="M322.78,46.09L322.78,46.09c-1.84,0-3.33,1.49-3.33,3.33v321.17c0,0.9,0.73,1.63,1.63,1.63h3.41
		c0.9,0,1.63-0.73,1.63-1.63V49.42C326.12,47.58,324.62,46.09,322.78,46.09z"/>
	<polygon class="st6" points="319.45,86.98 319.45,91.23 322.78,86.98 	"/>
	<polygon class="st6" points="326.12,121.62 326.12,125.87 322.78,121.62 	"/>
	<polygon class="st6" points="326.12,190.9 326.12,195.15 322.78,190.9 	"/>
	<polygon class="st6" points="319.45,156.26 319.45,160.51 322.78,156.26 	"/>
	<g>
		<polygon class="st4" points="322.78,86.98 252.53,86.98 245.44,73.2 252.53,59.42 322.78,59.42 		"/>
		<polygon class="st7" points="253.75,84.98 247.69,73.2 253.75,61.42 320.78,61.42 320.78,84.98 		"/>
	</g>
	<g>
		<polygon class="st4" points="322.78,121.62 357.85,121.62 364.93,107.84 357.85,94.06 322.78,94.06 		"/>
		<polygon class="st7" points="356.63,119.62 362.68,107.84 356.63,96.06 324.78,96.06 324.78,119.62 		"/>
	</g>
	<g>
		<polygon class="st4" points="322.78,156.26 272.19,156.26 265.11,142.48 272.19,128.71 322.78,128.71 		"/>
		<polygon class="st7" points="273.41,154.26 267.36,142.48 273.41,130.71 320.78,130.71 320.78,154.26 		"/>
	</g>
	<g>
		<polygon class="st4" points="322.78,190.9 371.51,190.9 378.6,177.13 371.51,163.35 322.78,163.35 		"/>
		<polygon class="st7" points="370.29,188.9 376.35,177.13 370.29,165.35 324.78,165.35 324.78,188.9 		"/>
	</g>
</g>
<g>
	<polygon class="st8" points="219.71,360.84 226.81,357.81 221.68,340.56 214.58,343.59 	"/>
	<polygon class="st8" points="161.16,364.33 168.88,364.33 169.28,346.46 161.56,346.46 	"/>
	<path class="st9" d="M169.93,363.44h-9.41c-0.32,0-0.59,0.22-0.66,0.53l-1.52,6.86c-0.16,0.71,0.4,1.39,1.13,1.37
		c3.03-0.05,5.24-0.23,9.05-0.23c2.35,0,9.42,0.24,12.66,0.24c3.17,0,3.66-3.2,2.34-3.49c-5.95-1.3-10.43-3.09-12.33-4.81
		C170.84,363.61,170.39,363.44,169.93,363.44z"/>
	<path class="st9" d="M226.64,356.78l-7.62,3.6c-0.29,0.13-0.44,0.45-0.37,0.76l1.55,6.85c0.16,0.71,0.94,1.09,1.59,0.77
		c2.73-1.35,6.62-3.39,10.08-5.02c4.04-1.91,4.17-1.91,8.9-4.15c2.86-1.35,2.29-4.63,0.97-4.32c-6.02,1.39-7.07,1.94-13.17,1.26
		C227.92,356.46,227.24,356.5,226.64,356.78z"/>
	<path class="st8" d="M183.81,119.5l3.18,0.79c1.09,0.26,2.19,0.49,3.27,0.7c2.17,0.42,4.34,0.76,6.35,0.93
		c1,0.08,1.97,0.11,2.81,0.06c0.83-0.03,1.56-0.16,1.82-0.24c0.14-0.03,0.12-0.03-0.01,0.11c-0.13,0.13-0.34,0.45-0.39,0.72
		c-0.07,0.27-0.03,0.4,0,0.34c0.03-0.05,0.02-0.28-0.03-0.57c-0.25-1.24-1.15-3.14-2.27-4.9c-1.14-1.79-2.45-3.62-3.88-5.4
		c-2.84-3.57-6.01-7.15-9.16-10.58l3.62-4.53c4.29,2.68,8.23,5.62,12,9.07c1.85,1.74,3.7,3.56,5.39,5.67
		c1.68,2.14,3.37,4.39,4.51,7.78c0.27,0.87,0.51,1.83,0.59,2.98c0.07,1.14-0.01,2.49-0.5,3.9c-0.47,1.4-1.39,2.73-2.41,3.68
		c-1.02,0.96-2.09,1.57-3.07,2.01c-1.96,0.86-3.64,1.14-5.2,1.33c-1.56,0.17-3.01,0.18-4.41,0.14c-2.79-0.09-5.41-0.45-7.96-0.93
		c-1.28-0.25-2.54-0.52-3.79-0.82c-1.28-0.3-2.44-0.62-3.81-1.04L183.81,119.5z"/>
	<path class="st9" d="M173.1,122.71c4.03-6.18,25.65-1.63,25.65-1.63l1.24,18.73c0,0-7.97-1.27-17.69-1.7
		C176.2,137.84,168.08,130.42,173.1,122.71z"/>
	<path class="st8" d="M186.73,102.22l-7.25-3.88l7.04-5.53c0,0,3.16,1.77,3.76,5.62L186.73,102.22z"/>
	<polygon class="st8" points="175.06,94.3 182.13,89.92 186.52,92.82 179.48,98.35 	"/>
	<g>
		<polygon class="st6" points="221.68,340.57 224.32,349.46 217.22,352.49 214.57,343.6 		"/>
		<polygon class="st6" points="161.56,346.47 169.28,346.47 169.07,355.68 161.35,355.68 		"/>
	</g>
	<g>
		<path class="st4" d="M155.03,139.64l-9.41,13.57c-0.6,0.86-0.94,1.88-0.98,2.93l-0.74,18.01c-0.05,1.34,0.38,2.65,1.22,3.7
			l4.09,5.08c1.12,1.39,2.84,2.15,4.61,2.05l12.37-0.68c2.94-0.16,5.24-2.6,5.23-5.54l-0.1-36.15c-0.01-3.11-2.58-5.6-5.68-5.52
			l-6.22,0.17C157.66,137.31,156.03,138.19,155.03,139.64z"/>
		<path class="st10" d="M155.03,139.64l-9.41,13.57c-0.6,0.86-0.94,1.88-0.98,2.93l-0.74,18.01c-0.05,1.34,0.38,2.65,1.22,3.7
			l4.09,5.08c1.12,1.39,2.84,2.15,4.61,2.05l12.37-0.68c2.94-0.16,5.24-2.6,5.23-5.54l-0.1-36.15c-0.01-3.11-2.58-5.6-5.68-5.52
			l-6.22,0.17C157.66,137.31,156.03,138.19,155.03,139.64z"/>
	</g>
	<g>
		<path class="st4" d="M180.55,134.48l-27.23,0.74c-3,0.08-5.52-2.31-5.61-5.31l-0.21-7.68c-0.08-3,2.31-5.52,5.31-5.61l27.23-0.74
			c3-0.08,5.52,2.31,5.61,5.31l0.21,7.68C185.94,131.88,183.55,134.4,180.55,134.48z"/>
		<path class="st10" d="M180.55,134.48l-27.23,0.74c-3,0.08-5.52-2.31-5.61-5.31l-0.21-7.68c-0.08-3,2.31-5.52,5.31-5.61l27.23-0.74
			c3-0.08,5.52,2.31,5.61,5.31l0.21,7.68C185.94,131.88,183.55,134.4,180.55,134.48z"/>
	</g>
	<path class="st9" d="M146.54,121.66c2.21,8.57,3.55,17.29,4.39,25.48c0.61,5.99,0.93,11.71,1.1,16.89
		c0.4,12.14-0.06,21.38,0.24,24.52c6.04-0.3,28.81-1.42,41.23-2.04c1.22-60.66-3.76-66.61-3.76-66.61s-4.54-1-9.83-1.42
		c-0.7-0.06-1.41-0.1-2.13-0.13c-4.66-0.19-12.28,0.35-17.53,0.87c-1.1,0.11-2.22,0.25-3.31,0.4
		C151.41,120.41,146.54,121.66,146.54,121.66z"/>
	<path class="st4" d="M187.86,140.16c-9.76-2.23-20.11-1.45-29.83,2.25c-0.28-0.96-0.56-1.93-0.84-2.89
		c10.25-3.9,21.17-4.72,31.47-2.37C188.39,138.16,188.12,139.16,187.86,140.16z"/>
	<path class="st6" d="M156.71,132.97c-0.12,6.9-2.14,12.69-5.46,17.74c-0.09-1.18-0.2-2.37-0.33-3.57
		c-0.46-4.5-1.07-9.17-1.92-13.89L156.71,132.97z"/>
	<path class="st7" d="M181.06,118.59c-0.38-0.04-0.77-0.07-1.16-0.1c-0.7-0.06-1.4-0.1-2.12-0.13c-4.67-0.19-12.28,0.36-17.53,0.87
		c-1.11,0.1-2.22,0.25-3.31,0.4c-0.02,0-0.05,0.01-0.07,0.01l0.79,1.23c1.22,1.93,5.12,6.48,15.09,7.37l0.95,0.08l0.83-0.47
		c2.14-1.22,5.61-4.17,6.39-7.31C181.12,119.81,181.14,119.16,181.06,118.59z"/>
	<path class="st9" d="M154.61,87.61c-3.89-1.94-8.32,3.65-7,7.15c3.64-0.52,5.27,2.06,5.27,2.06s-2.59,3.18-1.03,6.64
		c3.16-1.96,6.39,0.77,6.39,0.77s-1.36,3.15,1.19,5.5c0.84-2.26,4-0.21,5.28-2.01c2.08-2.91-0.32-6.03-0.32-6.03l-0.87-1.45
		C162.9,93.39,160.66,90.63,154.61,87.61z"/>
	<path class="st8" d="M161.01,99.4c1.39,5.58,3,15.86-0.76,19.82c1.57,2.47,5.58,5.31,12.77,5.95c2.56-1.45,5.93-4.99,4.76-6.82
		c-6.36-1.19-6.43-5.86-5.55-10.3L161.01,99.4z"/>
	<path class="st5" d="M180.78,118.79c0.45,3.74,3.73,28.68,12.31,39.34c0.3,0.37,0.9,0.16,0.9-0.32c0-2.19,0-4.25,0-4.63
		c0-0.04,0-0.07-0.02-0.12c-0.29-1.09-4.67-17.63-5.26-33.52c-0.01-0.17-0.1-0.33-0.25-0.41c-1.29-0.65-4.61-1.26-7.26-0.9
		C180.93,118.28,180.75,118.52,180.78,118.79z"/>
	<path class="st6" d="M165.59,102.93l6.64,5.12c-0.21,1.05-0.36,2.11-0.39,3.14c-2.42-0.23-5.85-2.7-6.23-5.2
		C165.42,104.74,165.41,103.53,165.59,102.93z"/>
	<path class="st9" d="M174.81,90.17c2.07,0.21,5.1-6.7,1.65-11.63c-3.19-4.55-9.47,0.17-10.27,1.02
		C165.39,80.41,167.38,89.4,174.81,90.17z"/>
	<path class="st8" d="M157.4,91.9c1.92,7.41,2.67,11.85,7.21,14.96c6.83,4.68,15.42-0.56,15.75-8.4c0.3-7.06-2.9-18-10.83-19.55
		C161.73,77.38,155.47,84.49,157.4,91.9z"/>
	<path class="st9" d="M160.68,97.8c2.07,0.21,2.79-9.24,1.65-11.63c-1.14-2.39-9.68,0.02-10.27,1.02
		C148.77,92.82,153.26,97.03,160.68,97.8z"/>
	<path class="st9" d="M177.42,74.7c-0.31-2.86-3.67-4.39-7.27-3.99c-0.17,2.11-3.65,3.7-3.65,3.7s-2.96-2.7-7.57-1.76
		c0.23,3.2-2.77,5.66-2.77,5.66s-3.12-1.33-6.31,1.65c2.58,1.22-1.63,3.91,0.72,6.9c2.66,3.39,7.38,1.47,7.38,1.47l2.01-1.06
		C169.73,86.16,178.23,82.21,177.42,74.7z"/>
	<path class="st9" d="M176.69,99.04C176.69,99.04,176.68,99.04,176.69,99.04c-2.51,1.79-4.73,2.32-4.98,2.4
		c-0.11,0.03-0.22-0.04-0.23-0.16c-0.01-0.11,0.08-0.23,0.19-0.26c0.15-0.05,2.36-0.58,4.78-2.3c0.1-0.07,0.23-0.05,0.29,0.04
		C176.8,98.85,176.78,98.97,176.69,99.04z"/>
	<path class="st8" d="M155.62,100.01c1.4,1.52,3.37,2.25,5.07,2.29c2.55,0.06,3.2-2.37,1.97-4.45c-1.11-1.87-3.78-4.16-6.09-3.23
		C154.3,95.53,154.02,98.27,155.62,100.01z"/>
	<path class="st5" d="M209.78,270.49c-4.06-23.2-16.28-83.97-16.28-83.97l-27.11,1.34c0,0,18.57,68.13,23.94,87.92
		c5.37,19.79,23.97,76.27,23.97,76.27l11.82-5.58C226.12,346.47,214,294.61,209.78,270.49z"/>
	<path class="st6" d="M177.39,210.76l-3.81,3.45c3.27,12.02,7.15,26.26,10.49,38.52C184.95,238.89,183.3,218.08,177.39,210.76z"/>
	<path class="st5" d="M182.13,187.08c0,0-5.43,64.58-6.11,87.18c-0.75,24.75-3.27,79.63-3.27,79.63h-14.14c0,0-2.17-50.2-2.65-74.49
		c-0.55-27.5-3.69-90.85-3.69-90.85L182.13,187.08z"/>
	<polygon class="st9" points="173.31,354.2 157.79,354.2 157.09,349.23 174.57,348.9 	"/>
	<polygon class="st9" points="226.99,346.4 213.66,352.7 210.8,348.23 225.99,341.01 	"/>
	<path class="st9" d="M169.19,91.78c0.12,0.61,0.54,1.04,0.94,0.97c0.4-0.08,0.63-0.64,0.51-1.25c-0.12-0.61-0.54-1.04-0.94-0.97
		C169.3,90.61,169.07,91.17,169.19,91.78z"/>
	<path class="st9" d="M176.1,90.43c0.12,0.61,0.54,1.04,0.94,0.97c0.4-0.08,0.63-0.64,0.51-1.25c-0.12-0.61-0.54-1.04-0.94-0.97
		C176.2,89.26,175.98,89.82,176.1,90.43z"/>
	<path class="st11" d="M173.96,91.17c0,0,2.08,3.25,3.94,4.66c-0.88,1.22-2.92,0.98-2.92,0.98L173.96,91.17z"/>
	<path class="st9" d="M170.18,88.23c-0.13-0.03-0.27,0.01-0.37,0.11c-1.08,1.22-2.41,1.05-2.43,1.04c-0.2-0.03-0.39,0.11-0.41,0.31
		c-0.03,0.2,0.1,0.39,0.31,0.41c0.07,0.01,1.74,0.23,3.08-1.28c0.13-0.15,0.12-0.38-0.03-0.52
		C170.29,88.27,170.24,88.25,170.18,88.23z"/>
	<path class="st9" d="M178.68,84.86c0.07-0.02,0.14-0.06,0.19-0.13c0.13-0.16,0.1-0.39-0.06-0.51c-1.59-1.25-3.19-0.73-3.26-0.71
		c-0.19,0.06-0.29,0.27-0.23,0.46c0.06,0.19,0.28,0.29,0.46,0.23l0,0c0.06-0.01,1.31-0.41,2.58,0.59
		C178.45,84.87,178.57,84.89,178.68,84.86z"/>
	<path class="st4" d="M172.48,364.79c0.59,0,1.14-0.1,1.49-0.39c0.28-0.23,0.4-0.56,0.38-0.97c-0.02-0.3-0.18-0.45-0.31-0.52
		c-0.86-0.44-3.34,1.09-3.62,1.27c-0.06,0.04-0.1,0.11-0.08,0.18c0.01,0.07,0.07,0.13,0.14,0.15
		C171,364.64,171.77,364.79,172.48,364.79z M173.63,363.19c0.1,0,0.18,0.01,0.24,0.05c0.05,0.03,0.11,0.07,0.12,0.21
		c0.02,0.29-0.06,0.51-0.25,0.66c-0.42,0.35-1.43,0.4-2.74,0.14C171.86,363.75,173.04,363.19,173.63,363.19z"/>
	<path class="st4" d="M170.51,364.52c0.03,0,0.06-0.01,0.09-0.02c0.8-0.43,2.34-2.13,2.18-2.99c-0.03-0.16-0.14-0.43-0.58-0.48
		c-0.28-0.03-0.55,0.04-0.78,0.24c-0.9,0.73-1.08,2.96-1.09,3.05c-0.01,0.07,0.03,0.13,0.08,0.17
		C170.44,364.51,170.47,364.52,170.51,364.52z M172.06,361.39c0.03,0,0.05,0,0.08,0.01c0.24,0.03,0.26,0.14,0.27,0.18
		c0.1,0.51-0.89,1.79-1.68,2.39c0.09-0.65,0.34-1.95,0.91-2.42C171.78,361.44,171.91,361.39,172.06,361.39z"/>
	<path class="st4" d="M227.78,357.42c0.01,0,0.02,0,0.03,0c1.23-0.31,3.36-0.98,3.8-2.02c0.13-0.31,0.11-0.63-0.07-0.95
		c-0.11-0.19-0.27-0.3-0.48-0.31c-1.06-0.06-3.2,2.68-3.44,2.99c-0.05,0.06-0.05,0.15-0.01,0.21
		C227.65,357.4,227.71,357.43,227.78,357.42z M230.98,354.51c0.02,0,0.04,0,0.05,0c0.08,0.01,0.14,0.04,0.19,0.13
		c0.12,0.22,0.14,0.42,0.05,0.63c-0.25,0.58-1.37,1.19-3.03,1.67C229.12,355.86,230.38,354.54,230.98,354.51z"/>
	<path class="st4" d="M227.78,357.42c0.05,0,0.09-0.03,0.13-0.06c0.66-0.78,1.62-3.07,1.12-3.8c-0.12-0.17-0.36-0.34-0.83-0.17
		c-0.35,0.13-0.62,0.37-0.78,0.72c-0.54,1.15,0.16,3.12,0.19,3.2c0.02,0.06,0.07,0.11,0.14,0.12
		C227.75,357.42,227.76,357.42,227.78,357.42z M228.52,353.68c0.14-0.01,0.19,0.06,0.2,0.08c0.3,0.44-0.27,2.16-0.89,3.08
		c-0.17-0.59-0.45-1.83-0.1-2.59c0.12-0.26,0.31-0.44,0.57-0.53C228.39,353.7,228.46,353.69,228.52,353.68z"/>
	<g>
		<path class="st8" d="M154.62,133.13l-2.24,3.06c-0.76,1.05-1.5,2.11-2.23,3.19c-1.47,2.14-2.88,4.31-4.26,6.48
			c-1.35,2.19-2.63,4.4-3.84,6.62c-1.15,2.23-2.24,4.47-3.14,6.72c-0.01,0.03-0.04,0.09-0.03,0.08l0.01-0.01
			c0-0.01,0.01-0.02,0.01-0.03c0.01-0.01-0.03-0.08-0.02-0.04c0.01,0.05-0.05,0.03-0.04,0.18c0,0.05-0.01,0.11-0.02,0.16
			c0,0.06,0.01,0.16,0.02,0.24l0.01,0.25l0.05,0.31c0.12,0.83,0.44,1.86,0.85,2.92c0.85,2.12,2,4.38,3.29,6.59
			c1.27,2.22,2.68,4.43,4.13,6.64c1.42,2.21,2.98,4.41,4.46,6.55l-4.25,3.94c-4.24-3.73-8.08-7.67-11.62-12.17
			c-1.74-2.27-3.44-4.63-4.89-7.4c-0.72-1.4-1.4-2.89-1.91-4.7l-0.18-0.68l-0.14-0.75c-0.04-0.26-0.09-0.5-0.12-0.77l-0.06-0.85
			c-0.06-0.54,0-1.22,0.05-1.85c0.01-0.3,0.11-0.69,0.18-1.03l0.12-0.53c0.05-0.18,0.09-0.36,0.12-0.42
			c1.74-5.74,4.23-10.94,7.03-15.87c1.4-2.46,2.9-4.86,4.47-7.19c0.79-1.16,1.6-2.31,2.43-3.46c0.83-1.16,1.65-2.23,2.62-3.43
			L154.62,133.13z"/>
		<path class="st9" d="M146.54,121.66c-7.26,1.31-13.96,18.87-13.96,18.87l14.85,12.6c0,0,5.13-8.89,9.26-17.49
			C161.18,126.28,155.33,120.07,146.54,121.66z"/>
		<path class="st8" d="M148.6,182.01l7.78-0.97l-2.97,9.4c0,0-6.8-0.65-6.86-4.29L148.6,182.01z"/>
		<polygon class="st8" points="161.92,184.33 159.1,191.98 153.4,190.45 156.37,181.05 		"/>
	</g>
	<path class="st5" d="M151.26,120.9c0.84,4.18,4.46,24.17,0.2,40.3c-0.01,0.03-0.01,0.06-0.01,0.08c-0.01,1.18,0.11,2.24,0.21,2.88
		c0.04,0.28,0.4,0.41,0.63,0.22c2.09-1.72,9.79-9.14,9.85-25.06c0.04-12.67-1.91-18.24-2.65-19.9c-0.15-0.33-0.52-0.52-0.9-0.46
		l-6.63,1.02C151.49,120.05,151.18,120.47,151.26,120.9z"/>
</g>
</svg>
