<?xml version="1.0" encoding="utf-8"?>
<!-- Generator: Adobe Illustrator 24.0.1, SVG Export Plug-In . SVG Version: 6.00 Build 0)  -->
<svg version="1.1" id="Capa_1" xmlns="http://www.w3.org/2000/svg" xmlns:xlink="http://www.w3.org/1999/xlink" x="0px" y="0px"
	 viewBox="0 0 200 200" style="enable-background:new 0 0 200 200;" xml:space="preserve">
<style type="text/css">
	.st0{fill:#39C7FF;}
	.st1{fill:#0F1020;}
</style>
<path class="st0" d="M43.9,46.7h93.5c3.9,0,7.1-3.2,7.1-7.1s-3.2-7.1-7.1-7.1H43.9c-3.9,0-7.1,3.2-7.1,7.1S40,46.7,43.9,46.7z"/>
<path class="st0" d="M43.9,83.6h93.5c3.9,0,7.1-3.2,7.1-7.1s-3.2-7.1-7.1-7.1H43.9c-3.9,0-7.1,3.2-7.1,7.1S40,83.6,43.9,83.6z"/>
<path class="st0" d="M43.9,120.4h46.7c3.9,0,7.1-3.2,7.1-7.1s-3.2-7.1-7.1-7.1H43.9c-3.9,0-7.1,3.2-7.1,7.1S40,120.4,43.9,120.4z"/>
<path class="st1" d="M181.9,0h-9.7h-162H0.5v9.7V143v9.7h9.7h55.7L85.4,183l5.8,9l5.8-9l19.5-30.3h55.7h9.7V143V9.7h0L181.9,0
	L181.9,0z M172.2,143h-49.4h-11.5l-6.2,9.7l-13.8,21.4l-13.8-21.4l-6.2-9.7H59.6H10.2V9.7h162V143z"/>
</svg>
