<?xml version="1.0" encoding="utf-8"?>
<!-- Generator: Adobe Illustrator 24.0.1, SVG Export Plug-In . SVG Version: 6.00 Build 0)  -->
<svg version="1.1" id="Capa_1" xmlns="http://www.w3.org/2000/svg" xmlns:xlink="http://www.w3.org/1999/xlink" x="0px" y="0px"
	 viewBox="0 0 200 200" style="enable-background:new 0 0 200 200;" xml:space="preserve">
<style type="text/css">
	.st0{fill:#39C7FF;}
	.st1{fill:#D4E1F4;}
	.st2{fill:#0F1020;}
</style>
<g>
	<path class="st0" d="M109.9,91.7v12c0,4.7-3.8,8.4-8.4,8.4H30.2l23.6-17l24.8-17.9L109.9,91.7z"/>
	<path class="st1" d="M109.9,43.4v48.4L78.5,77.3L53.6,95.2l-44.1-23V43.4c0-4.7,3.8-8.4,8.4-8.4l0,0h83.3
		C106,34.8,109.9,38.7,109.9,43.4L109.9,43.4z M59.6,61.3c0-6.3-5.2-11.5-11.5-11.5S36.6,55,36.6,61.3S41.7,72.8,48,72.8
		c0.1,0,0.1,0,0.2,0c6.2,0,11.3-5.1,11.3-11.3C59.6,61.4,59.6,61.4,59.6,61.3z"/>
	<path class="st0" d="M48.3,49.7c6.3,0,11.5,5.2,11.5,11.5s-5.2,11.5-11.5,11.5s-11.5-5.2-11.5-11.5l0,0
		c-0.1-6.2,4.8-11.4,11.1-11.5C48,49.7,48.2,49.7,48.3,49.7z"/>
	<path class="st0" d="M53.8,95.3l-23.6,17h-12c-4.7,0-8.4-3.8-8.4-8.4V72.2L53.8,95.3z"/>
</g>
<g>
	<path class="st2" d="M48.3,77.5c-8.9,0.1-16.4-7.1-16.5-16s7.1-16.4,16-16.5s16.4,7.1,16.5,16c0,0.1,0,0.1,0,0.2
		C64.3,70.2,57.2,77.4,48.3,77.5z M48.3,54.4c-3.7-0.1-7,2.9-7.1,6.6s2.9,7,6.6,7.1c3.7,0.1,7-2.9,7.1-6.6c0-0.1,0-0.1,0-0.2
		C54.9,57.5,52,54.6,48.3,54.4z"/>
	<path class="st2" d="M101.4,31.1H18.1c-7.3,0-14.2,5-14.2,12.3v60.5c0,7.3,6.8,12.3,14.2,12.3h83.3c7.3,0,13.4-5,13.4-12.3V43.4
		C114.8,36.1,108.8,31.1,101.4,31.1z M18.1,40.5h83.3c2.1,0,4,0.7,4,2.9v41.1L80.6,73.2c-1.5-0.7-3.4-0.5-4.7,0.5L53,89.6L13.4,69.3
		v-26C13.4,41.3,16,40.5,18.1,40.5z M13.4,103.7V79.9l30.9,15.5l-15.8,11.1H18.1C16,106.6,13.4,105.8,13.4,103.7z M101.4,106.6H44.6
		l34.6-24.3l26.2,12.5v8.9C105.4,105.8,103.5,106.6,101.4,106.6z"/>
	<path class="st2" d="M188,38.2h-56.6c-2.6,0-4.7-2.1-4.7-4.7s2.1-4.7,4.7-4.7H188c2.6,0,4.7,2.1,4.7,4.7S190.6,38.2,188,38.2z"/>
	<path class="st2" d="M188,71.2h-56.6c-2.6,0-4.7-2.1-4.7-4.7s2.1-4.7,4.7-4.7H188c2.6,0,4.7,2.1,4.7,4.7
		C192.7,69.1,190.6,71.2,188,71.2z"/>
	<path class="st2" d="M188,104.2h-56.6c-2.6,0-4.7-2.1-4.7-4.7s2.1-4.7,4.7-4.7H188c2.6,0,4.7,2.1,4.7,4.7S190.6,104.2,188,104.2z"
		/>
	<path class="st2" d="M188,137.2H37c-2.6,0-4.7-2.1-4.7-4.7c0-2.6,2.1-4.7,4.7-4.7h151c2.6,0,4.7,2.1,4.7,4.7S190.6,137.2,188,137.2
		z"/>
	<path class="st2" d="M188,170.3H37c-2.6,0-4.7-2.1-4.7-4.7c0-2.6,2.1-4.7,4.7-4.7h151c2.6,0,4.7,2.1,4.7,4.7S190.6,170.3,188,170.3
		z"/>
</g>
</svg>
