<?xml version="1.0" encoding="utf-8"?>
<!-- Generator: Adobe Illustrator 24.0.1, SVG Export Plug-In . SVG Version: 6.00 Build 0)  -->
<svg version="1.1" id="Capa_1" xmlns="http://www.w3.org/2000/svg" xmlns:xlink="http://www.w3.org/1999/xlink" x="0px" y="0px"
	 viewBox="0 0 200 200" style="enable-background:new 0 0 200 200;" xml:space="preserve">
<style type="text/css">
	.st0{fill:#39C7FF;}
	.st1{fill:#0F1020;}
</style>
<g>
	<circle class="st0" cx="22" cy="21.2" r="17.3"/>
	<circle class="st0" cx="22" cy="78.8" r="17.3"/>
	<circle class="st0" cx="22" cy="136.5" r="17.3"/>
</g>
<g>
	<path class="st1" d="M22,99.9c-11.7,0-21.1-9.5-21.1-21.1s9.5-21,21.1-21s21.2,9.4,21.2,21.1S33.7,99.9,22,99.9z M22,65.4
		c-7.4,0-13.4,6-13.4,13.4s6,13.4,13.4,13.4s13.4-6,13.4-13.4S29.4,65.4,22,65.4z"/>
	<path class="st1" d="M127.7,71.2H52.8c-2.1,0-3.8-1.7-3.8-3.8c0-2.1,1.7-3.8,3.8-3.8h74.9c2.1,0,3.8,1.7,3.8,3.8
		S129.8,71.2,127.7,71.2z"/>
	<path class="st1" d="M93.1,94.2H52.8c-2.1,0-3.8-1.7-3.8-3.8c0-2.1,1.7-3.8,3.8-3.8h40.3c2.1,0,3.8,1.7,3.8,3.8
		S95.2,94.2,93.1,94.2z"/>
	<path class="st1" d="M22,42.3c-11.7,0-21.1-9.5-21.1-21.1s9.5-21,21.1-21s21.2,9.4,21.2,21.1S33.7,42.3,22,42.3z M22,7.7
		c-7.4,0-13.4,6-13.4,13.4s6,13.4,13.4,13.4s13.4-6,13.4-13.4S29.4,7.7,22,7.7z"/>
	<path class="st1" d="M127.7,13.6H52.8c-2.1,0-3.8-1.7-3.8-3.8S50.7,6,52.8,6h74.9c2.1,0,3.8,1.7,3.8,3.8S129.8,13.6,127.7,13.6z"/>
	<path class="st1" d="M93.1,36.5H52.8c-2.1,0-3.8-1.7-3.8-3.8s1.7-3.8,3.8-3.8h40.3c2.1,0,3.8,1.7,3.8,3.8S95.2,36.5,93.1,36.5z"/>
	<path class="st1" d="M22,157.7c-11.7,0-21.1-9.5-21.1-21.1s9.5-21.1,21.1-21.1s21.2,9.4,21.2,21S33.7,157.7,22,157.7z M22,123
		c-7.4,0-13.4,6-13.4,13.4s6,13.4,13.4,13.4s13.4-6,13.4-13.4S29.4,123,22,123z"/>
	<path class="st1" d="M127.7,128.8H52.8c-2.1,0-3.8-1.7-3.8-3.8s1.7-3.8,3.8-3.8h74.9c2.1,0,3.8,1.7,3.8,3.8
		S129.8,128.8,127.7,128.8z"/>
	<path class="st1" d="M93.1,151.9H52.8c-2.1,0-3.8-1.7-3.8-3.8s1.7-3.8,3.8-3.8h40.3c2.1,0,3.8,1.7,3.8,3.8S95.2,151.9,93.1,151.9z"
		/>
</g>
</svg>
