<?xml version="1.0" encoding="utf-8"?>
<!-- Generator: Adobe Illustrator 24.0.1, SVG Export Plug-In . SVG Version: 6.00 Build 0)  -->
<svg version="1.1" id="Layer_1" xmlns="http://www.w3.org/2000/svg" xmlns:xlink="http://www.w3.org/1999/xlink" x="0px" y="0px"
	 viewBox="0 0 280 80" style="enable-background:new 0 0 280 80;" xml:space="preserve">
<style type="text/css">
	.st0{fill:#1364FD;}
	.st1{fill:url(#SVGID_1_);}
	.st2{fill:#39C7FF;}
	.st3{fill:#21A1FE;}
	.st4{fill:#0F1020;}
</style>
<title>logo</title>
<path class="st0" d="M68.2,54.5v-6.2l0,0V36l0,0V25.9c0-7.7-6.3-14-14-14H25.7c-7.7,0-14,6.3-14,14v28.6c0,7.7,6.3,14,14,14h28.6
	C62,68.4,68.2,62.2,68.2,54.5z"/>
<linearGradient id="SVGID_1_" gradientUnits="userSpaceOnUse" x1="115.1412" y1="15.6" x2="140.0812" y2="15.6" gradientTransform="matrix(6.123234e-17 1 -1 6.123234e-17 51.7 -89.7)">
	<stop  offset="0" style="stop-color:#FFFFFF"/>
	<stop  offset="1" style="stop-color:#7CF6FF"/>
</linearGradient>
<path class="st1" d="M27.2,48V29.1l16.2-3.7c0.7-0.1,1.4,0.3,1.5,1c0,0.1,0,0.2,0,0.3V47l-15,3.4c-1.3,0.2-2.5-0.6-2.8-1.9
	C27.2,48.3,27.2,48.2,27.2,48z"/>
<path class="st2" d="M27.2,29.1v20.3c0,1,0.6,1.9,1.6,2.2l22.9,7.6c0.7,0.2,1.4-0.2,1.7-0.8c0-0.1,0.1-0.3,0.1-0.4V39.7
	c0-1.1-0.7-2.1-1.8-2.5L27.2,29.1z"/>
<path class="st3" d="M27.2,29.1v20.5c0,0.7,0.5,1.2,1.2,1.2c0.1,0,0.2,0,0.3,0L43,47.4c1.2-0.3,2-1.3,2-2.5V35"/>
<path class="st4" d="M85.4,21.8c1.6,0,3,1.3,3,3v31.7c0,1.7-1.3,3-3,3s-3-1.3-3-3V24.7C82.4,23.1,83.7,21.8,85.4,21.8z M97.2,25.8
	c0,1.6-1.2,2.9-2.8,3c0,0,0,0-0.1,0c-1.6,0-2.9-1.3-2.9-3v-1.1c0-1.6,1.3-2.9,2.9-2.9c0,0,0,0,0,0c1.6,0,2.9,1.2,2.9,2.8
	c0,0,0,0.1,0,0.1V25.8z M97.2,35.5v21c0,1.6-1.2,2.9-2.8,2.9c0,0-0.1,0-0.1,0c-1.6,0-2.9-1.3-2.9-2.9c0,0,0,0,0,0V35.5
	c-0.1-1.6,1.2-2.9,2.7-3c0.1,0,0.1,0,0.2,0c1.6,0,2.9,1.2,2.9,2.8C97.2,35.4,97.2,35.4,97.2,35.5L97.2,35.5z M114.5,35.4
	c0,1.6-1.4,3-3,3h-1.3v15c1.7,0,3,1.3,3,3c0.1,1.6-1.2,3-2.8,3c-0.1,0-0.1,0-0.2,0c-3.3,0-6-2.7-6-6v-15h-1.6c-1.6,0-3-1.3-3-2.9
	c0,0,0,0,0-0.1c-0.1-1.6,1.2-3,2.8-3c0.1,0,0.1,0,0.2,0h1.6v-7.7c0-1.6,1.4-3,3-3c1.6,0,2.9,1.2,3,2.8c0,0,0,0.1,0,0.1v7.8h1.3
	C113.2,32.5,114.5,33.8,114.5,35.4L114.5,35.4z M115.9,45.9c-0.1-7.3,5.8-13.3,13.1-13.4c7,0,12.7,5.5,12.9,12.5v0.3
	c0,0.2,0,0.3-0.1,0.5c-0.2,1.3-1.4,2.3-2.8,2.1H122c0.2,1.3,0.9,2.6,1.8,3.5c1.4,1.4,3.2,2.2,5.2,2.4c2,0.2,3.9-0.3,5.6-1.3
	c1.1-1.1,2.8-1.1,4-0.2c1,1,1,2.5,0,3.5c0,0,0,0,0,0c-2.6,2.4-6.1,3.7-9.6,3.5C121.7,59.2,115.8,53.3,115.9,45.9L115.9,45.9z
	 M121.7,43.3h15.2c-0.5-2.2-3.3-5.3-7.9-5.7C125.5,37.6,122.5,40,121.7,43.3C121.7,43.3,121.7,43.3,121.7,43.3z M145.1,51.7
	c0.9-1.2,2.7-1.4,3.9-0.5c0,0,0.1,0,0.1,0.1c1.6,1.4,3.7,2.2,5.9,2.4c1.3,0,2.6-0.3,3.6-1c0.6-0.4,0.9-1,1-1.6c0-0.2,0-0.4-0.2-0.5
	c-0.1-0.2-0.3-0.4-0.7-0.6c-1.3-0.8-2.8-1.3-4.3-1.5h-0.1c-1.6-0.3-3.2-0.8-4.7-1.4c-1.5-0.7-2.8-1.8-3.7-3.1
	c-0.6-1-0.9-2.2-0.9-3.4c0.1-2.4,1.2-4.5,3.2-5.9c1.9-1.3,4.2-2,6.6-2c2.9,0.1,5.8,1.2,8.1,3c1.3,0.9,1.7,2.7,0.9,4
	c-0.9,1.3-2.6,1.7-3.9,0.8c0,0,0,0-0.1,0c-1.7-1.1-3.2-2-4.9-2c-1.1,0-2.3,0.3-3.2,1c-0.5,0.2-0.8,0.7-0.9,1.2c0,0.2,0,0.3,0.1,0.4
	c0.1,0.2,0.4,0.4,0.6,0.5c1.2,0.7,2.5,1.1,3.9,1.3l0.1,0h0.1c1.7,0.3,3.4,0.8,5,1.6c1.6,0.6,2.9,1.7,3.8,3.2c0.6,1.1,1,2.3,1,3.5
	c-0.1,2.5-1.3,4.8-3.4,6.2c-2.1,1.4-4.5,2.2-7,2.1c-3.5-0.1-6.9-1.4-9.6-3.7C144.3,54.6,144.1,52.9,145.1,51.7L145.1,51.7
	L145.1,51.7z M171.3,55.4c-2.4-2.5-3.8-5.9-3.7-9.4c0-3.5,1.3-6.8,3.7-9.4c2.4-2.6,5.7-4.1,9.2-4.1c3.4,0,6.7,1.5,9,4.1
	c2.4,2.5,3.8,5.9,3.8,9.4c0.1,3.5-1.3,6.9-3.8,9.4c-2.3,2.6-5.6,4.1-9,4.1C177,59.5,173.6,58,171.3,55.4L171.3,55.4z M173.4,46
	c-0.1,2.1,0.6,4.1,1.9,5.7c1.4,1.3,3.2,2,5.2,2c1.8,0,3.6-0.7,4.9-2c1.4-1.6,2.1-3.6,2.1-5.7c0-2.1-0.7-4.1-2.1-5.6
	c-1.4-1.2-3.1-2-4.9-2c-1.9,0-3.7,0.7-5.2,2C174.1,42,173.4,44,173.4,46z M220.8,43.6v12.9c0,1.6-1.3,2.8-2.8,2.8
	c-1.6,0-2.9-1.3-2.9-2.8V43.6c0-3-2.5-5.5-5.6-5.4c-3,0-5.5,2.5-5.4,5.6v12.7c0,0.1-0.1,0.3-0.1,0.4V57c0,0.1-0.1,0.2-0.2,0.3v0.3
	c-0.5,1-1.6,1.7-2.7,1.7c-0.2,0-0.4,0-0.5,0c-1.3-0.3-2.3-1.4-2.3-2.8V35.4c0-1.6,1.2-2.9,2.8-2.9c0,0,0,0,0.1,0
	c1.1,0,2.1,0.6,2.6,1.6c1.7-1,3.7-1.6,5.8-1.6c3.2,0,6.3,1.3,8.4,3.7c2.1-2.4,5.2-3.8,8.4-3.7c6.2,0,11.2,5.1,11.2,11.2c0,0,0,0,0,0
	v12.7c0,1.6-1.3,2.8-2.8,2.8c-1.6,0-2.9-1.3-2.9-2.8V43.8c0-3-2.4-5.5-5.4-5.5C223.3,38.3,220.9,40.6,220.8,43.6L220.8,43.6z
	 M243.5,45.9c-0.1-7.3,5.8-13.3,13.1-13.4c7,0,12.7,5.5,12.9,12.5v0.3c0,0.2,0,0.3,0,0.5c-0.2,1.3-1.4,2.3-2.8,2.1h-17.1
	c0.2,1.3,0.9,2.6,1.8,3.5c1.4,1.4,3.2,2.2,5.2,2.4c2,0.2,3.9-0.3,5.6-1.3c1.1-1.1,2.8-1.1,4-0.2c1,1,1,2.5,0,3.5l0,0
	c-2.6,2.4-6.1,3.7-9.6,3.5C249.2,59.2,243.4,53.2,243.5,45.9L243.5,45.9z M249.3,43.3h15.2c-0.5-2.2-3.3-5.3-7.9-5.7
	C253.1,37.6,250.2,40,249.3,43.3L249.3,43.3z"/>
</svg>
