<?xml version="1.0" encoding="utf-8"?>
<!-- Generator: Adobe Illustrator 24.0.1, SVG Export Plug-In . SVG Version: 6.00 Build 0)  -->
<svg version="1.1" id="Layer_1" xmlns="http://www.w3.org/2000/svg" xmlns:xlink="http://www.w3.org/1999/xlink" x="0px" y="0px"
	 viewBox="0 0 280 80" style="enable-background:new 0 0 280 80;" xml:space="preserve">
<style type="text/css">
	.st0{fill:#1364FD;}
	.st1{fill:url(#SVGID_1_);}
	.st2{fill:url(#SVGID_2_);}
	.st3{opacity:0.9;fill:#209FFE;enable-background:new    ;}
	.st4{fill:#34312D;}
</style>
<title>logo</title>
<path class="st0" d="M68.25,54.45v-6.2l0,0V36l0,0V25.87c0-7.73-6.27-14-14-14H25.69c-7.73,0-14,6.27-14,14v28.58
	c0,7.73,6.27,14,14,14h28.58C61.99,68.44,68.25,62.17,68.25,54.45z"/>
<linearGradient id="SVGID_1_" gradientUnits="userSpaceOnUse" x1="15.1416" y1="166.3997" x2="40.0816" y2="166.3997" gradientTransform="matrix(6.123234e-17 1 1 -6.123234e-17 -130.3 10.3)">
	<stop  offset="0" style="stop-color:#FFFFFF"/>
	<stop  offset="1" style="stop-color:#7CF6FF"/>
</linearGradient>
<path class="st1" d="M27.2,48V29.14l16.22-3.67c0.71-0.15,1.4,0.3,1.55,1.01c0.02,0.09,0.03,0.18,0.03,0.27V47l-15,3.37
	c-1.28,0.24-2.52-0.6-2.76-1.88C27.21,48.33,27.2,48.16,27.2,48z"/>
<linearGradient id="SVGID_2_" gradientUnits="userSpaceOnUse" x1="19.9811" y1="156.3585" x2="47.8109" y2="184.1783" gradientTransform="matrix(6.123234e-17 1 1 -6.123234e-17 -130.3 10.3)">
	<stop  offset="0" style="stop-color:#209FFE"/>
	<stop  offset="1" style="stop-color:#3FD0FF"/>
</linearGradient>
<path class="st2" d="M27.2,29.14v20.28c-0.01,1.02,0.64,1.92,1.61,2.24l22.87,7.63c0.69,0.23,1.43-0.15,1.65-0.83
	c0.04-0.13,0.07-0.27,0.07-0.41V39.74c0-1.13-0.72-2.13-1.78-2.49L27.2,29.14z"/>
<path class="st3" d="M27.2,29.15v20.48c0,0.65,0.53,1.18,1.18,1.18c0.09,0,0.18-0.01,0.27-0.03L43,47.41c1.18-0.29,2-1.34,2-2.55V35
	"/>
<path class="st4" d="M85.37,21.77c1.64,0,2.97,1.31,3,2.95V56.4c0,1.66-1.34,3-3,3s-3-1.34-3-3V24.72
	C82.4,23.08,83.73,21.77,85.37,21.77z M97.23,25.77c0.03,1.6-1.23,2.92-2.83,2.95c-0.02,0-0.04,0-0.06,0
	c-1.61-0.02-2.91-1.34-2.9-2.95v-1.1c-0.01-1.59,1.27-2.89,2.86-2.9c0.01,0,0.03,0,0.04,0c1.57-0.02,2.87,1.24,2.89,2.81
	c0,0.03,0,0.06,0,0.09V25.77z M97.23,35.49v20.96c0.03,1.57-1.23,2.87-2.8,2.9c-0.03,0-0.06,0-0.09,0c-1.59,0.01-2.89-1.27-2.9-2.86
	c0-0.01,0-0.03,0-0.04V35.52c-0.07-1.58,1.15-2.93,2.74-3c0.05,0,0.11,0,0.16,0c1.57-0.03,2.86,1.22,2.89,2.78c0,0.07,0,0.14,0,0.22
	V35.49z M114.52,35.43c-0.03,1.64-1.36,2.95-3,2.95h-1.34v15c1.66,0,3,1.34,3,3c0.05,1.61-1.21,2.95-2.82,3c-0.06,0-0.12,0-0.18,0
	c-3.31,0-6-2.69-6-6v-15h-1.56c-1.62,0.03-2.97-1.26-3-2.88c0-0.02,0-0.05,0-0.07c-0.05-1.61,1.21-2.95,2.82-3c0.06,0,0.12,0,0.18,0
	h1.56v-7.71c0.03-1.64,1.36-2.95,3-2.95c1.61-0.05,2.95,1.21,3,2.82c0,0.04,0,0.09,0,0.13v7.79h1.34c1.64,0,2.97,1.31,3,2.95
	L114.52,35.43z M115.86,45.9c-0.06-7.32,5.82-13.31,13.14-13.39c6.98-0.04,12.71,5.51,12.9,12.49v0.26
	c0.01,0.16-0.01,0.33-0.05,0.49c-0.22,1.33-1.44,2.27-2.79,2.14H122c0.25,1.34,0.89,2.57,1.83,3.55c1.39,1.38,3.22,2.22,5.17,2.38
	c1.96,0.19,3.92-0.28,5.58-1.34c1.1-1.07,2.82-1.13,4-0.16c0.96,0.95,0.98,2.5,0.03,3.46c-0.01,0.01-0.02,0.02-0.03,0.03
	c-2.61,2.38-6.05,3.65-9.58,3.54c-7.33-0.1-13.2-6.09-13.14-13.42V45.9z M121.71,43.27h15.2c-0.54-2.15-3.28-5.32-7.95-5.69
	c-3.44,0.02-6.43,2.38-7.25,5.72V43.27z M145.12,51.65c0.94-1.22,2.7-1.44,3.91-0.5c0.03,0.02,0.06,0.05,0.09,0.07
	c1.65,1.42,3.73,2.25,5.9,2.36c1.28,0,2.55-0.34,3.65-1c0.56-0.36,0.92-0.95,1-1.61c0.01-0.19-0.04-0.39-0.16-0.54
	c-0.06-0.16-0.27-0.37-0.7-0.64c-1.32-0.76-2.78-1.28-4.29-1.51h-0.06c-1.61-0.28-3.17-0.75-4.67-1.39c-1.5-0.68-2.77-1.76-3.7-3.12
	c-0.61-1.02-0.93-2.19-0.92-3.38c0.08-2.36,1.25-4.54,3.17-5.91c1.95-1.32,4.25-2.02,6.6-2c2.94,0.12,5.76,1.17,8.06,3
	c1.29,0.9,1.67,2.65,0.86,4c-0.87,1.31-2.64,1.67-3.95,0.79c-0.02-0.01-0.03-0.02-0.05-0.03c-1.71-1.13-3.22-2-4.94-2
	c-1.15-0.01-2.28,0.34-3.22,1c-0.47,0.25-0.79,0.71-0.86,1.24c-0.02,0.15,0.02,0.31,0.11,0.43c0.14,0.23,0.35,0.42,0.59,0.54
	c1.22,0.67,2.54,1.11,3.92,1.29l0.06,0.05h0.05c1.73,0.29,3.41,0.81,5,1.56c1.56,0.64,2.89,1.74,3.81,3.16
	c0.65,1.07,0.99,2.3,1,3.55c-0.08,2.47-1.34,4.76-3.38,6.15c-2.06,1.41-4.5,2.16-7,2.14c-3.51-0.12-6.88-1.42-9.56-3.7
	c-1.16-1.02-1.3-2.78-0.32-3.97V51.65z M171.26,55.4c-2.42-2.54-3.75-5.93-3.7-9.44c0-3.49,1.32-6.85,3.7-9.4
	c2.37-2.6,5.72-4.08,9.24-4.08c3.45-0.02,6.74,1.47,9,4.08c2.44,2.52,3.79,5.9,3.76,9.4c0.08,3.53-1.28,6.93-3.76,9.44
	c-2.26,2.61-5.55,4.1-9,4.08c-3.51,0.01-6.86-1.46-9.24-4.05V55.4z M173.41,46c-0.05,2.07,0.63,4.08,1.93,5.69
	c1.39,1.32,3.24,2.03,5.16,2c1.84,0,3.62-0.72,4.94-2c1.39-1.56,2.14-3.6,2.09-5.69c0.04-2.06-0.71-4.06-2.09-5.59
	c-1.35-1.24-3.11-1.95-4.94-2c-1.91,0.02-3.74,0.73-5.16,2C174.05,41.98,173.37,43.97,173.41,46z M220.76,43.63v12.88
	c-0.01,1.56-1.28,2.83-2.84,2.84c-1.57-0.02-2.85-1.27-2.9-2.84V43.62c-0.04-3.04-2.54-5.46-5.58-5.42
	c-3.04,0.04-5.46,2.54-5.42,5.58v12.73c0,0.11-0.05,0.27-0.05,0.37V57c-0.03,0.12-0.08,0.23-0.16,0.33v0.27
	c-0.52,1.02-1.55,1.67-2.69,1.71c-0.21,0-0.37-0.05-0.53-0.05c-1.32-0.28-2.28-1.44-2.31-2.79V35.41c-0.03-1.57,1.21-2.87,2.78-2.9
	c0.02,0,0.04,0,0.06,0c1.11-0.04,2.13,0.6,2.58,1.61c1.74-1.04,3.72-1.6,5.75-1.61c3.21-0.04,6.28,1.31,8.43,3.7
	c2.13-2.4,5.21-3.76,8.42-3.7c6.19,0.02,11.19,5.06,11.17,11.25c0,0.01,0,0.01,0,0.02v12.73c-0.01,1.56-1.28,2.83-2.84,2.84
	c-1.58,0-2.86-1.26-2.9-2.84V43.78c0.02-3.02-2.41-5.49-5.43-5.53c-2.99,0.01-5.43,2.38-5.54,5.37L220.76,43.63z M243.47,45.94
	c-0.07-7.32,5.78-13.32,13.1-13.42c6.99-0.05,12.73,5.49,12.93,12.48v0.26c0.01,0.16-0.01,0.33-0.05,0.49
	c-0.22,1.33-1.44,2.27-2.79,2.14h-17.07c0.25,1.34,0.88,2.57,1.82,3.55c1.38,1.39,3.21,2.24,5.16,2.41
	c1.96,0.19,3.92-0.28,5.58-1.34c1.1-1.07,2.82-1.13,4-0.16c0.96,0.96,0.97,2.52,0.01,3.48c0,0-0.01,0.01-0.01,0.01
	c-2.62,2.39-6.07,3.66-9.61,3.54c-7.31-0.14-13.14-6.14-13.07-13.45V45.94z M249.32,43.31h15.19c-0.54-2.15-3.27-5.32-7.94-5.69
	c-3.43,0.01-6.42,2.35-7.25,5.68V43.31z"/>
</svg>
