<?xml version="1.0" encoding="utf-8"?>
<!-- Generator: Adobe Illustrator 24.0.1, SVG Export Plug-In . SVG Version: 6.00 Build 0)  -->
<svg version="1.1" id="Capa_1" xmlns="http://www.w3.org/2000/svg" xmlns:xlink="http://www.w3.org/1999/xlink" x="0px" y="0px"
	 viewBox="0 0 200 200" style="enable-background:new 0 0 200 200;" xml:space="preserve">
<style type="text/css">
	.st0{fill:#0F1020;}
	.st1{fill:#39C7FF;}
</style>
<path class="st0" d="M166.1,102.7c0,2.4-1.9,4.3-4.3,4.3H5.8c-2.4,0-4.3-1.9-4.3-4.3s1.9-4.3,4.3-4.3h156
	C164.2,98.3,166.1,100.3,166.1,102.7z"/>
<rect x="7.3" y="54.1" class="st1" width="38.6" height="31.8"/>
<path class="st0" d="M45.9,90.5H7.3c-2.5,0-4.5-2-4.5-4.5V54.1c0-2.5,2-4.5,4.5-4.5h38.6c2.5,0,4.5,2,4.5,4.5v31.8
	C50.5,88.4,48.4,90.5,45.9,90.5z M11.8,81.4h29.5V58.6H11.8V81.4z"/>
<rect x="61.4" y="54.1" class="st1" width="38.6" height="31.8"/>
<path class="st0" d="M100,90.5H61.4c-2.5,0-4.5-2-4.5-4.5V54.1c0-2.5,2-4.5,4.5-4.5H100c2.5,0,4.5,2,4.5,4.5v31.8
	C104.6,88.4,102.5,90.5,100,90.5z M66,81.4h29.5V58.6H66V81.4z"/>
</svg>
