<?xml version="1.0" encoding="utf-8"?>
<!-- Generator: Adobe Illustrator 24.0.1, SVG Export Plug-In . SVG Version: 6.00 Build 0)  -->
<svg version="1.1" id="Capa_1" xmlns="http://www.w3.org/2000/svg" xmlns:xlink="http://www.w3.org/1999/xlink" x="0px" y="0px"
	 viewBox="0 0 200 200" style="enable-background:new 0 0 200 200;" xml:space="preserve">
<style type="text/css">
	.st0{fill:#0F1020;}
	.st1{fill:#1364FD;}
</style>
<path class="st0" d="M100.7-1.4C45.2-1.4,0,43.7,0,99.3S45.2,200,100.7,200s100.7-45.2,100.7-100.7S156.3-1.4,100.7-1.4z
	 M100.7,174.8c-41.7,0-75.5-33.9-75.5-75.5s33.9-75.5,75.5-75.5s75.5,33.9,75.5,75.5S142.4,174.8,100.7,174.8L100.7,174.8z"/>
<path class="st1" d="M100.7,48.9c-27.8,0-50.4,22.6-50.4,50.4s22.6,50.4,50.4,50.4s50.4-22.6,50.4-50.4S128.5,48.9,100.7,48.9z"/>
</svg>
