<?xml version="1.0" encoding="utf-8"?>
<!-- Generator: Adobe Illustrator 24.0.1, SVG Export Plug-In . SVG Version: 6.00 Build 0)  -->
<svg version="1.1" id="Capa_1" xmlns="http://www.w3.org/2000/svg" xmlns:xlink="http://www.w3.org/1999/xlink" x="0px" y="0px"
	 viewBox="0 0 200 200" style="enable-background:new 0 0 200 200;" xml:space="preserve">
<style type="text/css">
	.st0{fill:#39C7FF;}
	.st1{fill:#0F1020;}
</style>
<g>
	<rect x="113.1" y="113.1" class="st0" width="65.5" height="65.5"/>
	<rect x="21.4" y="113.1" class="st0" width="65.5" height="65.5"/>
	<rect x="113.1" y="21.4" class="st0" width="65.5" height="65.5"/>
	<rect x="21.4" y="21.4" class="st0" width="65.5" height="65.5"/>
</g>
<g>
	<path class="st1" d="M86.9,93.4H21.4c-3.6,0-6.6-2.9-6.6-6.6V21.4c0-3.6,2.9-6.6,6.6-6.6h65.5c3.6,0,6.6,2.9,6.6,6.6v65.5
		C93.4,90.5,90.5,93.4,86.9,93.4z M27.9,80.3h52.4V27.9H27.9V80.3z"/>
	<path class="st1" d="M178.6,93.4h-65.5c-3.6,0-6.6-2.9-6.6-6.6V21.4c0-3.6,2.9-6.6,6.6-6.6h65.5c3.6,0,6.6,2.9,6.6,6.6v65.5
		C185.2,90.5,182.2,93.4,178.6,93.4z M119.7,80.3h52.4V27.9h-52.4L119.7,80.3L119.7,80.3z"/>
	<path class="st1" d="M86.9,185.2H21.4c-3.6,0-6.6-2.9-6.6-6.6v-65.5c0-3.6,2.9-6.6,6.6-6.6h65.5c3.6,0,6.6,2.9,6.6,6.6v65.5
		C93.4,182.2,90.5,185.2,86.9,185.2z M27.9,172.1h52.4v-52.4H27.9V172.1z"/>
	<path class="st1" d="M178.6,185.2h-65.5c-3.6,0-6.6-2.9-6.6-6.6v-65.5c0-3.6,2.9-6.6,6.6-6.6h65.5c3.6,0,6.6,2.9,6.6,6.6v65.5
		C185.2,182.2,182.2,185.2,178.6,185.2z M119.7,172.1h52.4v-52.4h-52.4L119.7,172.1L119.7,172.1z"/>
</g>
</svg>
