<?xml version="1.0" encoding="utf-8"?>
<!-- Generator: Adobe Illustrator 24.0.1, SVG Export Plug-In . SVG Version: 6.00 Build 0)  -->
<svg version="1.1" id="Capa_1" xmlns="http://www.w3.org/2000/svg" xmlns:xlink="http://www.w3.org/1999/xlink" x="0px" y="0px"
	 viewBox="0 0 200 200" style="enable-background:new 0 0 200 200;" xml:space="preserve">
<style type="text/css">
	.st0{fill:#39C7FF;}
</style>
<path class="st0" d="M183.9,13H16.1c-2.9,0-5.4,2.2-5.6,5.1v29.4c0,2.8,2.3,5.1,5.1,5.1s5.1-2.3,5.1-5.1V23.3H95v153.5H62.1
	c-2.8,0-5.1,2.3-5.1,5.1s2.3,5.1,5.1,5.1h75.7c2.8,0,5.1-2.3,5.1-5.1s-2.3-5.1-5.1-5.1h-32.7V23.3h74.2v24.3c0,2.8,2.3,5.1,5.1,5.1
	s5.1-2.3,5.1-5.1V18.1C189.2,15.2,186.8,13,183.9,13z"/>
</svg>
