<?xml version="1.0" encoding="utf-8"?>
<!-- Generator: Adobe Illustrator 24.0.1, SVG Export Plug-In . SVG Version: 6.00 Build 0)  -->
<svg version="1.1" id="Capa_1" xmlns="http://www.w3.org/2000/svg" xmlns:xlink="http://www.w3.org/1999/xlink" x="0px" y="0px"
	 viewBox="0 0 200 200" style="enable-background:new 0 0 200 200;" xml:space="preserve">
<style type="text/css">
	.st0{fill:#1364FD;}
	.st1{fill:#0F1020;}
</style>
<g>
	<polygon class="st0" points="190.1,160.8 190.1,190.1 160.8,190.1 160.8,175.5 160.8,160.8 175.5,160.8 	"/>
	<polygon class="st0" points="39.1,175.5 39.1,190.1 9.9,190.1 9.9,160.8 24.5,160.8 39.1,160.8 	"/>
	<polygon class="st0" points="190.1,9.9 190.1,39.1 175.5,39.1 160.8,39.1 160.8,24.5 160.8,9.9 	"/>
	<polygon class="st0" points="39.1,24.5 39.1,39.1 24.5,39.1 9.9,39.1 9.9,9.9 39.1,9.9 	"/>
</g>
<path class="st1" d="M190.1,43.9c2.7,0,4.9-2.2,4.9-4.9V9.9c0-2.7-2.2-4.9-4.9-4.9h-29.3c-2.7,0-4.9,2.2-4.9,4.9v9.7h-112V9.9
	C43.9,7.2,41.7,5,39,5H9.9C7.2,5,5,7.2,5,9.9v29.3c0,2.7,2.2,4.9,4.9,4.9h9.7v112H9.9C7.2,156,5,158.2,5,161v29.3
	c0,2.7,2.2,4.9,4.9,4.9h29.3c2.7,0,4.9-2.2,4.9-4.9v-9.7h112v9.7c0,2.7,2.2,4.9,4.9,4.9h29.3c2.7,0,4.9-2.2,4.9-4.9V161
	c0-2.7-2.2-4.9-4.9-4.9h-9.7V43.9H190.1z M165.7,14.8h19.4v19.4h-19.4V14.8z M14.8,14.8h19.4v19.4H14.8V14.8z M34.2,185.2H14.8
	v-19.4h19.4V185.2z M185.2,185.2h-19.4v-19.4h19.4V185.2z M170.5,156h-9.7c-2.7,0-4.9,2.2-4.9,4.9v9.7h-112V161
	c0-2.7-2.2-4.9-4.9-4.9h-9.7V43.9H39c2.7,0,4.9-2.2,4.9-4.9v-9.7h112V39c0,2.7,2.2,4.9,4.9,4.9h9.7L170.5,156L170.5,156z"/>
</svg>
