<?xml version="1.0" encoding="utf-8"?>
<!-- Generator: Adobe Illustrator 24.0.1, SVG Export Plug-In . SVG Version: 6.00 Build 0)  -->
<svg version="1.1" id="Capa_1" xmlns="http://www.w3.org/2000/svg" xmlns:xlink="http://www.w3.org/1999/xlink" x="0px" y="0px"
	 viewBox="0 0 200 200" style="enable-background:new 0 0 200 200;" xml:space="preserve">
<style type="text/css">
	.st0{fill:#0F1020;}
	.st1{fill:#1364FD;}
</style>
<g>
	<path class="st0" d="M199.2,138.7v-105h-58.3V16.2h17.5V4.6h-46.6v11.7h17.5v17.5H1v104.9h128.2v17.5h-17.5v11.7h46.6v-11.7h-17.5
		v-17.5H199.2z M187.6,45.4V127H141V45.4H187.6z M12.7,127V45.4h116.6V127H12.7z"/>
</g>
<path class="st1" d="M89,53.8H26.6c-1.1,0-2,0.8-2.1,1.9v10.9c0,1,0.9,1.9,1.9,1.9s1.9-0.9,1.9-1.9v-9h27.6v57.1H43.7
	c-1,0-1.9,0.9-1.9,1.9s0.9,1.9,1.9,1.9h28.2c1,0,1.9-0.9,1.9-1.9s-0.9-1.9-1.9-1.9H59.7v-57h27.6v9c0,1,0.9,1.9,1.9,1.9
	s1.9-0.9,1.9-1.9v-11C91,54.6,90.1,53.8,89,53.8z"/>
</svg>
