<?xml version="1.0" encoding="utf-8"?>
<!-- Generator: Adobe Illustrator 24.0.1, SVG Export Plug-In . SVG Version: 6.00 Build 0)  -->
<svg version="1.1" xmlns="http://www.w3.org/2000/svg" xmlns:xlink="http://www.w3.org/1999/xlink" x="0px" y="0px"
	 viewBox="0 0 100 300" style="enable-background:new 0 0 100 300;" xml:space="preserve">
<style type="text/css">
	.st0{fill:none;stroke:#2A1E17;stroke-width:0.7222;stroke-linecap:round;stroke-linejoin:round;stroke-miterlimit:10;}
	.st1{fill:#F9F9F8;}
	.st2{fill:#9FCA78;}
	.st3{fill:#FFE179;}
	.st4{fill:#F9F8F6;}
	.st5{fill:#FFFFFF;}
	.st6{fill:#DED7D0;}
	.st7{fill:#FF3D43;}
	.st8{fill:#2A1E17;}
	.st9{fill:#F9F8F6;stroke:#2A1E17;stroke-width:0.7222;stroke-linecap:round;stroke-linejoin:round;stroke-miterlimit:10;}
	.st10{fill:#FBCAC4;}
	.st11{fill:#FF835C;}
	.st12{fill:#2A1E17;stroke:#2A1E17;stroke-width:0.7222;stroke-linecap:round;stroke-linejoin:round;stroke-miterlimit:10;}
	.st13{fill:none;stroke:#FFFFFF;stroke-width:0.7222;stroke-linecap:round;stroke-linejoin:round;stroke-miterlimit:10;}
	.st14{fill:#FFFFFF;stroke:#2A1E17;stroke-width:0.7222;stroke-linecap:round;stroke-linejoin:round;stroke-miterlimit:10;}
	.st15{fill:#1364FD;}
	.st16{fill:#AFCD5C;}
	.st17{fill:#FFE179;stroke:#FFE179;stroke-width:0.7222;stroke-miterlimit:10;}
</style>
<g id="BACKGROUND">
</g>
<g id="OBJECTS">
	<g>
		<path class="st0" d="M24.71,187.54c44.86-32.23,30.3-92.4,56.51-95.31"/>
		<g>
			<path class="st1" d="M70.42,147.09H50.14c-0.61,0-1.11-0.5-1.11-1.11v-13.22c0-0.61,0.5-1.11,1.11-1.11h20.28
				c0.61,0,1.11,0.5,1.11,1.11v13.22C71.53,146.6,71.03,147.09,70.42,147.09z"/>
			<path class="st2" d="M52.57,145.4h8.68c0.29,0,0.44-0.36,0.23-0.56L57.5,141c-0.33-0.32-0.86-0.32-1.19,0l-3.97,3.84
				C52.13,145.04,52.27,145.4,52.57,145.4z"/>
			<path class="st2" d="M60.65,142.95l2.3,2.3h6.67v-4.12c0-0.09-0.03-0.17-0.1-0.23l-3.29-3.29c-0.35-0.35-0.91-0.33-1.24,0.03
				c-1.17,1.28-3.69,4.05-4.37,4.88C60.52,142.64,60.53,142.83,60.65,142.95z"/>
			<circle class="st3" cx="56.04" cy="136.6" r="1.7"/>
		</g>
		<g>
			<path class="st15" d="M54.36,175.9H17.12c-1.15,0-2.08-0.93-2.08-2.08v-12.7c0-1.15,0.93-2.08,2.08-2.08h37.24
				c1.15,0,2.08,0.93,2.08,2.08v12.7C56.44,174.96,55.51,175.9,54.36,175.9z"/>
			<line class="st0" x1="39.87" y1="169.31" x2="51.13" y2="169.31"/>
			<line class="st0" x1="39.87" y1="165.98" x2="51.13" y2="165.98"/>
			<path class="st4" d="M34.81,169.87h-11.8c-1,0-1.82-0.81-1.82-1.82v-0.87c0-1,0.81-1.82,1.82-1.82h11.8c1,0,1.82,0.81,1.82,1.82
				v0.87C36.63,169.05,35.82,169.87,34.81,169.87z"/>
		</g>
		<polyline class="st0" points="71.27,185.81 73.76,189.18 77.07,187.12 79.46,190.71 		"/>
		<g>
			<g>
				<path class="st17" d="M58.68,237.75c0,0-1.2-3.44-1.52-4.92c-1.04-4.88,0.72-8.87-1.6-12.61c-2.36-3.8-11.88-6.62-16.24,2.03
					c-3.73,7.37,3.31,12.27,6.51,14.21s4.61,5.18,4.61,5.18s0.37-1.69,3.72-2.93S58.68,237.75,58.68,237.75z"/>
				<path class="st0" d="M58.68,237.75c0,0,2.27,4.51-2.24,6.78s-6-2.89-6-2.89s0.61-1.63,3.72-2.93
					C57.27,237.4,58.68,237.75,58.68,237.75z"/>
				<line class="st0" x1="52.03" y1="239.85" x2="46.88" y2="232.47"/>
				<line class="st0" x1="55.56" y1="237.74" x2="53.43" y2="228.68"/>
				<path class="st0" d="M47.55,233c0,0,1.89-0.74,1.88-3.62c0,0,3,2.58,4.24,0.64"/>
				<path class="st0" d="M52.23,243.93c0,0,2.01-4.26,7.2-3.55"/>
			</g>
			<path class="st13" d="M45.73,219.57c0,0,4.24-1.82,7.54,1.37"/>
		</g>
		<circle class="st8" cx="39.79" cy="291.54" r="1.34"/>
		<circle class="st0" cx="53.46" cy="8.6" r="2.15"/>
		<g>
			<rect x="46.69" y="38.54" class="st0" width="9.19" height="9.19"/>
			<rect x="55.88" y="29.81" class="st11" width="9.19" height="9.19"/>
		</g>
		<g>
			<path class="st2" d="M46.84,104.33h-2.72c-3.15,0-5.7-2.55-5.7-5.7v-2.72c0-3.15,2.55-5.7,5.7-5.7h2.72c3.15,0,5.7,2.55,5.7,5.7
				v2.72C52.54,101.77,49.99,104.33,46.84,104.33z"/>
			<g>
				<g>
					<path class="st4" d="M41.68,98.71c0.7,0.7,1.4,1.4,2.1,2.1c0.41,0.41,1.12,0.41,1.53,0c1.38-1.38,2.75-2.75,4.13-4.13
						c0.2-0.2,0.39-0.39,0.59-0.59c0.4-0.4,0.43-1.14,0-1.53c-0.43-0.4-1.1-0.43-1.53,0c-1.38,1.38-2.75,2.75-4.13,4.13
						c-0.2,0.2-0.39,0.39-0.59,0.59c0.51,0,1.02,0,1.53,0c-0.7-0.7-1.4-1.4-2.1-2.1c-0.4-0.4-1.14-0.43-1.53,0
						C41.28,97.61,41.25,98.28,41.68,98.71L41.68,98.71z"/>
				</g>
			</g>
		</g>
		<circle class="st8" cx="81.21" cy="93.2" r="2.78"/>
	</g>
</g>
</svg>
