<?xml version="1.0" encoding="utf-8"?>
<!-- Generator: Adobe Illustrator 24.0.1, SVG Export Plug-In . SVG Version: 6.00 Build 0)  -->
<svg version="1.1" xmlns="http://www.w3.org/2000/svg" xmlns:xlink="http://www.w3.org/1999/xlink" x="0px" y="0px"
	 viewBox="0 0 400 340" style="enable-background:new 0 0 400 340;" xml:space="preserve">
<style type="text/css">
	.st0{fill:none;stroke:#2A1E17;stroke-width:0.7222;stroke-linecap:round;stroke-linejoin:round;stroke-miterlimit:10;}
	.st1{fill:#F9F9F8;}
	.st2{fill:#9FCA78;}
	.st3{fill:#FFE179;}
	.st4{fill:#F9F8F6;}
	.st5{fill:#FFFFFF;}
	.st6{fill:#DED7D0;}
	.st7{fill:#FF3D43;}
	.st8{fill:#2A1E17;}
	.st9{fill:#F9F8F6;stroke:#2A1E17;stroke-width:0.7222;stroke-linecap:round;stroke-linejoin:round;stroke-miterlimit:10;}
	.st10{fill:#FBCAC4;}
	.st11{fill:#FF835C;}
	.st12{fill:#2A1E17;stroke:#2A1E17;stroke-width:0.7222;stroke-linecap:round;stroke-linejoin:round;stroke-miterlimit:10;}
	.st13{fill:none;stroke:#FFFFFF;stroke-width:0.7222;stroke-linecap:round;stroke-linejoin:round;stroke-miterlimit:10;}
	.st14{fill:#FFFFFF;stroke:#2A1E17;stroke-width:0.7222;stroke-linecap:round;stroke-linejoin:round;stroke-miterlimit:10;}
	.st15{fill:#1364FD;}
	.st16{fill:#AFCD5C;}
	.st17{fill:#FFE179;stroke:#FFE179;stroke-width:0.7222;stroke-miterlimit:10;}
</style>
<g id="BACKGROUND">
</g>
<g id="OBJECTS">
	<line class="st0" x1="230.97" y1="300.99" x2="256.08" y2="300.99"/>
	<line class="st0" x1="271.16" y1="330.14" x2="288.27" y2="330.14"/>
	<path class="st0" d="M78.69,114.14c0,0-34.05,20.89-13.34,21.98c14.91,0.78,45.53-10.2,65.15-7.06s-53.38,75.36-15.7,75.36
		s86.58-68.39,94.98-47.1c0,0-25.62,93.15,4.26,77.87S331.66,94.46,368.79,111.65c32.01,14.82-26.22,150.32,28.56,86.34"/>
	<g>
		<path class="st1" d="M173.94,33.27h-21.6c-0.81,0-1.47-0.66-1.47-1.47V17.9c0-0.81,0.66-1.47,1.47-1.47h21.6
			c0.81,0,1.47,0.66,1.47,1.47v13.9C175.41,32.61,174.75,33.27,173.94,33.27z"/>
		<path class="st2" d="M154.72,31.42h9.46c0.32,0,0.48-0.39,0.25-0.61l-4.33-4.19c-0.36-0.35-0.94-0.35-1.3,0l-4.33,4.19
			C154.24,31.03,154.4,31.42,154.72,31.42z"/>
		<path class="st2" d="M163.54,28.75l2.51,2.51h7.27v-4.5c0-0.09-0.04-0.18-0.1-0.25l-3.58-3.58c-0.38-0.38-0.99-0.37-1.35,0.03
			c-1.28,1.4-4.02,4.42-4.76,5.32C163.4,28.41,163.41,28.62,163.54,28.75z"/>
		<circle class="st3" cx="158.51" cy="21.82" r="1.85"/>
	</g>
	<g>
		<path class="st3" d="M82.54,245.77H52.66c-1.15,0-2.08-0.93-2.08-2.08v-9.7c0-1.15,0.93-2.08,2.08-2.08h29.88
			c1.15,0,2.08,0.93,2.08,2.08v9.7C84.62,244.84,83.69,245.77,82.54,245.77z"/>
		<line class="st0" x1="70.99" y1="240.36" x2="80.25" y2="240.36"/>
		<line class="st0" x1="70.99" y1="237.62" x2="80.25" y2="237.62"/>
		<path class="st4" d="M66.52,240.81h-9.06c-1,0-1.82-0.81-1.82-1.82v-0.07c0-1,0.81-1.82,1.82-1.82h9.06c1,0,1.82,0.81,1.82,1.82
			V239C68.33,240,67.52,240.81,66.52,240.81z"/>
	</g>
	<g>
		<path class="st1" d="M302.66,277.59h-26.54c-1,0-1.81-0.81-1.81-1.81V258.7c0-1,0.81-1.81,1.81-1.81h26.54
			c1,0,1.81,0.81,1.81,1.81v17.08C304.47,276.78,303.66,277.59,302.66,277.59z"/>
		<path class="st2" d="M279.05,275.32h11.63c0.39,0,0.58-0.48,0.3-0.75l-5.32-5.15c-0.45-0.43-1.16-0.43-1.6,0l-5.32,5.15
			C278.46,274.84,278.66,275.32,279.05,275.32z"/>
		<path class="st2" d="M289.89,272.04l3.08,3.08h8.94v-5.53c0-0.12-0.05-0.23-0.13-0.31l-4.41-4.41c-0.46-0.46-1.22-0.45-1.66,0.04
			c-1.57,1.72-4.94,5.43-5.85,6.54C289.71,271.63,289.73,271.88,289.89,272.04z"/>
		<circle class="st3" cx="283.71" cy="263.53" r="2.27"/>
	</g>
	<g>
		<path class="st3" d="M259.66,177.94l-1.78,14.71l-11.43,94.26c0,0-8.2,13.42-10.44,14.16s-11.63-13.42-11.63-13.42
			s0.78-18.27,4.77-59.49c1.23-12.77,3.79-28.42,5.1-36.86c2.13-13.7,2.81-16.36,2.81-16.36L259.66,177.94z"/>
		<g>
			<path class="st5" d="M246.45,286.91c0,0-8.2,13.42-10.44,14.16s-11.63-13.42-11.63-13.42l4.01,2.1c0.64,0.33,1.38,0.38,2.06,0.13
				l4.82-1.77l4.52,1.51c0.67,0.22,1.4,0.16,2.02-0.18L246.45,286.91z"/>
		</g>
		<path class="st6" d="M259.66,177.94l-1.78,14.71c0,0-5.65,1.13-12.72,0.66c-5.86-0.39-10.9-2-10.9-2
			c2.13-13.7,2.81-16.36,2.81-16.36s4.16,0.85,11.72,1.74S259.66,177.94,259.66,177.94z"/>
		<path class="st7" d="M252.34,161.94c4.66,0.65,7.22,1.46,7.84,3.03s-0.52,12.97-0.52,12.97s-19.98-0.26-22.6-2.98
			c-2.61-2.72,0.07-9.91,1.58-11.34C240.63,161.73,242.62,160.58,252.34,161.94z"/>
		<path class="st0" d="M224.38,287.66c0,0,4.71,7.62,8.44,11.37c1.24,1.25,2.38,2.08,3.19,2.05c0.82-0.03,1.88-0.93,3.01-2.26
			c3.39-4,7.43-11.9,7.43-11.9"/>
		<path class="st8" d="M239.02,298.81c-1.13,1.33-2.19,2.23-3.01,2.26c-0.82,0.03-1.95-0.79-3.19-2.05c0,0,0.88-1.15,3.09-0.96
			S239.02,298.81,239.02,298.81z"/>
		<path class="st0" d="M239.78,289.62c0,0,7.88-68.46,10.36-83.57"/>
		<line class="st0" x1="230.75" y1="279.34" x2="238.87" y2="196.13"/>
		<polyline class="st0" points="230.45,289.89 235.27,288.12 240.23,289.94 		"/>
		<path class="st0" d="M238.31,192.01c0,0,6.44,2.44,19.57,0.64"/>
		<path class="st0" d="M247.4,184.66c0,0,8.83,0.65,13.28-0.12"/>
		<path class="st0" d="M238.89,176.35c0,0,6.38,2.13,17.6,1.55"/>
	</g>
	<g>
		<path class="st9" d="M234.57,220.9l31.55-16.91c1.01-0.54,2.25,0.03,2.5,1.15l5.07,23.01l19.72,8.31c1.25,0.53,1.43,2.22,0.32,3
			l-29.44,20.68c-0.5,0.35-1.14,0.41-1.69,0.16l-22.74-10.09l-6.16-27.42C233.54,222.04,233.89,221.27,234.57,220.9z"/>
		<line class="st0" x1="243.44" y1="247.7" x2="272.15" y2="229.67"/>
		<line class="st0" x1="248.84" y1="250.62" x2="276.49" y2="232.52"/>
		<line class="st0" x1="254.26" y1="253.25" x2="282.33" y2="234.16"/>
		<polygon class="st2" points="236.84,223.15 241.65,244 270.66,226.79 266.2,207.71 		"/>
		<path class="st8" d="M272.55,251.24c-1.06-0.68-5.9-3.42-5.9-3.42l10.68-7.23l5.74,3.26L272.55,251.24z"/>
	</g>
	<g>
		<path class="st4" d="M157.53,173.24c0,0-22.51,42.36-22.77,50.57s30.18,53.41,32.3,55.79l12.05-4.38l-1.22-29.97l-6.93-18.56
			l6.93-12.44l-0.49-17.71L157.53,173.24z"/>
		<path class="st4" d="M173.49,190.96l3.71,5.03c0,0,0.53,75.2,2.38,86.05l23.77-1.45c0,0,9.5-92.55,10.08-104.19
			c0,0-24.85,7.15-56.09-3.7L173.49,190.96z"/>
		<path class="st8" d="M164.73,175.6c0,0,17.91,9.14,30.1,8.76c12.19-0.38,19.05-8,19.05-8L164.73,175.6z"/>
		<path class="st10" d="M223.48,168.46c-1.15,0.42-3.97,2.3-4.91,1.57c-0.94-0.73-0.94-2.41,1.57-3.97s7.32-4.81,7.95-4.5
			C228.71,161.87,223.48,168.46,223.48,168.46z"/>
		<path class="st11" d="M151.64,89.72c0,0,15.94,2.97,34.92,9.19l14.69,2.18c0,0,24.91,3.75,32.3,12.08c0,0,10.01,11.11,12.29,18.5
			l-19.89,10.61l-5.87-9.85l-6.63,43.96c0,0-25.87,10.12-64.75-5.2l9.99-53.72c0,0-12.32-2.27-14.59-4.93
			C144.09,112.55,147.25,97.4,151.64,89.72z"/>
		<path class="st10" d="M157.03,41.71c-1.5-0.75-3.46,1.92-5,4.33c-1.54,2.41-4.81,7.89-4.81,7.89s-11.64,8.37-20.97,19.34
			c-5.68,6.67-10.58,12.6-13.56,20.88c0,0,12.89,12.41,31.94,16.45l7.02-20.88l-9.73-3.05c0,0,16.08-19.75,18.1-21.48
			c0,0,1.25,0.29,5.96-0.48c4.71-0.77,6.73-1.54,6.73-2.41s-0.38-2.12-5.96-1.83l-1.15-1.44c0,0,8.66-8.75,9.24-9.91
			c0.58-1.15-0.58-1.64-4.04-0.58c-3.46,1.06-5.2,2.69-5.2,2.69s2.31-3.37,3.94-5.77c1.64-2.41,0.77-3.08-0.1-3.08
			c-0.87,0-7.06,4.92-8.69,7.33c0,0,5.23-8.58,4.07-9.35c-1.15-0.77-6.54,4.19-9.33,8.04C155.49,48.4,158.37,42.39,157.03,41.71z"/>
		<path class="st0" d="M112.68,94.15c0,0,12.89,12.41,31.94,16.45"/>
		<path class="st10" d="M229.16,188.93c-1.78,0.91-5.24-5.11-6.05-7.8c-0.81-2.69-0.66-9.97-0.14-12.69
			c0.43-2.23,1.45-4.32,4.64-7.28c1.47-1.36,3.57-3.11,5.98-4.76c0,0-5.91-10.48-8.06-14.65l10.51-5.43l9.52-4.92
			c0,0,13.31,23.25,11.69,25.81c-1.61,2.55-18.82,11.29-18.82,11.29l0.94,5.38c0,0,5.65,6.59,4.97,7.66s-5.11-1.08-7.26-3.76
			c0,0,4.03,6.85,2.69,7.8c-1.34,0.94-4.97-1.75-7.26-4.97c0,0,2.96,5.91,1.88,7.26c-1.08,1.34-4.84-2.28-6.45-6.32
			c0,0,0.3,2.14,0.76,4.18C229.03,187.17,229.7,188.66,229.16,188.93z"/>
		<polyline class="st0" points="225.53,141.75 236.04,136.32 245.56,131.4 		"/>
		<path class="st0" d="M257.25,157.21c-1.61,2.55-18.82,11.29-18.82,11.29l0.94,5.38c0,0,5.65,6.59,4.97,7.66
			c0,0-1.7,1.79-6.83-3.47"/>
		<path class="st0" d="M222.98,168.44c0.43-2.23,1.45-4.32,4.64-7.28"/>
		<path class="st10" d="M187.25,72.12c-6.74,18.57-1.34,23.39-1.34,23.39l0.64,3.41c0,0-0.09,5.68,5.06,6.75
			c6.34,1.31,9.63-4.57,9.63-4.57l1.38-3.18c0,0,6.83-3.29,6.95-21.23c0,0-2.38-4.07-10.72-5.46
			C190.53,69.84,187.25,72.12,187.25,72.12z"/>
		<path class="st8" d="M201.75,72.49l7.84,4.19l-1.9,9.06l1.48,0.11l3.07-8.9c0,0,5.46-4.68-0.69-8.97
			c-4.23-2.95-6.52,0.53-6.52,0.53L201.75,72.49z"/>
		<path class="st8" d="M192.3,64.52c-2-0.74-9.78,0.42-7.47,8.73c0,0-0.73,5.07-0.73,7.46c0,2.6,1.8,2.25,1.8,0.81
			c0-0.12,1.82-8.67,1.82-8.67l4.79-1.18L192.3,64.52z"/>
		<path class="st8" d="M195.59,59.91c-3.98,1.55-4.7,11.69-4.7,11.69l12.01,1.09c0,0,4.89-5.24,3.31-8.51
			C204.62,60.9,200.95,57.83,195.59,59.91z"/>
		<path class="st10" d="M185.73,81c-0.22-1.8-1.78-3.22-2.62-2.27c-0.84,0.95-1.74,6.62,0.99,7.14
			C184.09,85.87,186.15,84.47,185.73,81z"/>
		<path class="st10" d="M207.42,90.71c1.99,0.75,4.53-2.33,4.11-4.75c-0.42-2.42-2.31-2.84-3.05-0.95
			C207.74,86.91,207.42,90.71,207.42,90.71z"/>
		<path class="st0" d="M233.6,156.4c0,0,5.59-5.33,10.4-5.72"/>
		<path class="st0" d="M158.16,58.94c0,0,3.78-4.59,8.58,1.53"/>
		<path class="st0" d="M134.09,83.75c0,0,4.55-0.81,7.82,2.92"/>
		<path class="st0" d="M158.68,117.47c0,0,1.86-10.3,5.2-15.91"/>
		<path class="st0" d="M237.09,177.77c0,0,4.07,6.66,2.69,7.8c0,0-3.13,1.79-7.26-4.97c0,0,3.84,6.62,1.88,7.26
			c-1.96,0.64-6.45-6.32-6.45-6.32s2.37,5.51,1.21,7.39s-6.05-7.8-6.05-7.8"/>
		<path class="st8" d="M185.07,79.2l-0.97,6.67c0,0-2.69,8.24,1.82,9.63c5.05,1.56,12.17,3.6,15.91,3.26
			c2.73-0.25,5.5-1.47,5.6-8.05l1.67-6.55c0,0-0.59-0.12-1.77,1.52c-1.68,2.35-4,8.07-7.34,7.95c-2.85-0.11-8.44-1.1-11.13-3.79
			c-1.15-1.15-2.31-6.77-2.69-9.17C185.91,79,185.07,79.2,185.07,79.2z"/>
		<path class="st0" d="M157.34,172.69c0,0-22.51,42.36-22.77,50.57s30.18,53.41,32.3,55.79l12.05-4.38"/>
		<path class="st0" d="M173.49,190.96l3.71,5.03c0,0,0.1,8.32,0.21,17.48c0.26,22.6,0.86,60.85,2.17,68.57l23.77-1.45
			c0,0,9.5-92.55,10.08-104.19"/>
		<polyline class="st0" points="178.1,245.1 170.76,226.14 177.11,214.11 		"/>
		<path class="st12" d="M170.1,277.99l1.01,6.28l-3.65,2.5c0,0-6.55,3.36-3.86,5.64s15.91,0.41,15.91,0.41l-0.6-18.14L170.1,277.99z
			"/>
		<path class="st8" d="M179.72,293.43l30.34,0.49c1.98-0.1,2.73-2.6,1.15-3.81c-0.44-0.34-0.93-0.66-1.48-0.95
			c-2.91-1.56-11.38-3.3-12.36-3.18c0.76-2.11,0.45-3.62,0.64-5.39l-18.43,1.45L179.72,293.43z"/>
		<path class="st0" d="M183.01,98.63c0,2.64,0.17,8.33,7.72,9.96c7.52,1.63,11.18-2.03,13.01-5.29"/>
		<line class="st0" x1="220.06" y1="132.44" x2="218.62" y2="118.15"/>
		<path class="st0" d="M165.92,222.73c1.67,0.73,3.36,1.82,4.84,3.42"/>
		<path class="st8" d="M177.41,213.47c-0.11-9.16-0.21-17.48-0.21-17.48l-3.71-5.03"/>
		<path class="st8" d="M229.33,148.75c2.16,3.9,4.27,7.65,4.27,7.65c1.18-0.87,1.83-1.72,3.33-3.02c0,0-2.01-0.3-3.71-1.56
			C230.78,150.01,228.47,147.2,229.33,148.75z"/>
		<path class="st13" d="M197.37,285.98c0,0-3.92-2.94-8.98-0.22"/>
		<path class="st13" d="M172.64,284.59c0,0,3.7-1.95,6.81,0"/>
		<line class="st13" x1="179.64" y1="283.62" x2="180.03" y2="291.01"/>
		<polyline class="st0" points="196.95,80.76 194.94,85.17 198.15,85.71 		"/>
		<path class="st8" d="M189.47,93.24c0,0,2.19-4.64,3.48-5.16c1.29-0.52,5.8,0.26,6.7,1.03c0.9,0.77,1.68,6.06,1.68,6.06l-2.32,0.26
			l-1.03-4.51l-4.38-1.03l-1.68,3.74L189.47,93.24z"/>
		<path class="st0" d="M190.24,79.25c0,0,1.05-1.75,2.8-0.18"/>
		<path class="st0" d="M202.59,81.07c0,0,1.53-1.06,2.37,0.99"/>
	</g>
	<g>
		<path class="st11" d="M332.17,82.78h-40.09c-0.89,0-1.61-0.72-1.61-1.61v-7.5c0-0.89,0.72-1.61,1.61-1.61h40.09
			c0.89,0,1.61,0.72,1.61,1.61v7.5C333.78,82.06,333.06,82.78,332.17,82.78z"/>
		<line class="st0" x1="311.97" y1="78.59" x2="330.4" y2="78.59"/>
		<line class="st0" x1="311.97" y1="76.47" x2="330.4" y2="76.47"/>
		<path class="st4" d="M308.5,78.94h-12.71c-0.78,0-1.41-0.63-1.41-1.41v-0.05c0-0.78,0.63-1.41,1.41-1.41h12.71
			c0.78,0,1.41,0.63,1.41,1.41v0.05C309.91,78.31,309.28,78.94,308.5,78.94z"/>
	</g>
	<line class="st0" x1="132.56" y1="293.68" x2="220.99" y2="293.68"/>
	<g>
		<path class="st14" d="M214.51,53.51l-0.46-3.93h-6.45c-2.09,0-3.78-1.69-3.78-3.78V32.47c0-2.09,1.69-3.78,3.78-3.78h18.49
			c2.09,0,3.78,1.69,3.78,3.78v13.28c0,2.09-1.69,3.78-3.78,3.78h-7.29L214.51,53.51z"/>
		<polyline class="st15" points="212.98,44.45 209.47,44.45 209.47,36.51 212.82,36.51 		"/>
		<path class="st0" d="M214.3,31.48L214.3,31.48c0.75,0,1.35,0.6,1.35,1.35v2.97h4.63c1.14,0,2.07,0.92,2.07,2.07v4.51
			c0,1.14-0.92,2.07-2.07,2.07h-7.29l-0.03-11.62C212.95,32.09,213.55,31.48,214.3,31.48z"/>
	</g>
	<g>
		<path class="st7" d="M94.65,74.84H57.9v-0.05c0-1.5,1.22-2.72,2.72-2.72h31.31C93.45,72.07,94.68,73.32,94.65,74.84L94.65,74.84z"
			/>
		<path class="st14" d="M94.65,74.84H57.9v28.82c0,0.86,0.7,1.56,1.56,1.56h33.68c0.86,0,1.56-0.7,1.56-1.56L94.65,74.84z"/>
		<rect x="61.66" y="79.14" class="st8" width="17.32" height="2.24"/>
		<line class="st0" x1="62.07" y1="83.82" x2="89.95" y2="83.82"/>
		<line class="st0" x1="68.28" y1="88.48" x2="88.84" y2="88.48"/>
		<line class="st0" x1="68.28" y1="93.36" x2="88.84" y2="93.36"/>
		<line class="st0" x1="68.28" y1="98.07" x2="88.84" y2="98.07"/>
		<circle class="st7" cx="64.55" cy="88.82" r="1.22"/>
		<circle class="st7" cx="64.55" cy="93.59" r="1.22"/>
		<circle class="st7" cx="64.55" cy="98.19" r="1.22"/>
	</g>
	<polyline class="st0" points="261.9,109.28 264.94,109.84 264.88,112.86 268.33,113.26 268.27,116.71 	"/>
	<polyline class="st0" points="52.19,207.83 54.23,210.6 56.96,208.91 58.92,211.86 	"/>
	<polyline class="st0" points="386.42,34.35 388.47,37.12 391.19,35.43 393.16,38.37 	"/>
	<polyline class="st0" points="61.3,49.11 63.35,51.88 66.07,50.19 68.03,53.13 	"/>
	<polyline class="st0" points="326.92,248.91 329.23,251.47 331.77,249.51 334.01,252.25 	"/>
	<polyline class="st0" points="115.94,81.17 112.66,82.21 113.38,85.34 109.96,86.24 	"/>
	<g>
		<path class="st15" d="M144.87,175.13H93.04c-1.15,0-2.08-0.93-2.08-2.08v-9.7c0-1.15,0.93-2.08,2.08-2.08h51.83
			c1.15,0,2.08,0.93,2.08,2.08v9.7C146.95,174.2,146.02,175.13,144.87,175.13z"/>
		<line class="st0" x1="118.75" y1="169.72" x2="142.58" y2="169.72"/>
		<line class="st0" x1="118.75" y1="166.98" x2="142.58" y2="166.98"/>
		<path class="st4" d="M114.27,170.18H97.84c-1,0-1.82-0.81-1.82-1.82v-0.07c0-1,0.81-1.82,1.82-1.82h16.43c1,0,1.82,0.81,1.82,1.82
			v0.07C116.09,169.36,115.27,170.18,114.27,170.18z"/>
	</g>
	<g>
		<path class="st3" d="M316.51,202.9h-19.4c-0.66,0-1.19-0.53-1.19-1.19v-11.01c0-0.66,0.53-1.19,1.19-1.19h19.4
			c0.66,0,1.19,0.53,1.19,1.19v11.01C317.7,202.37,317.16,202.9,316.51,202.9z"/>
		<polyline class="st0" points="298.8,191.89 306.9,197.72 315.61,191.89 		"/>
		<line class="st14" x1="298.14" y1="200.67" x2="303.72" y2="195.6"/>
		<line class="st14" x1="310.91" y1="195.24" x2="315.91" y2="201.28"/>
	</g>
	<g>
		<path class="st14" d="M49.67,177.92l-12.48,0.37c-0.42,0.01-0.78-0.32-0.79-0.74l-0.21-7.08c-0.01-0.42,0.32-0.78,0.74-0.79
			l12.48-0.37c0.42-0.01,0.78,0.32,0.79,0.74l0.21,7.08C50.42,177.56,50.09,177.91,49.67,177.92z"/>
		<polyline class="st0" points="38.07,171.17 43.39,174.77 48.88,170.85 		"/>
		<line class="st14" x1="37.81" y1="176.83" x2="41.3" y2="173.46"/>
		<line class="st14" x1="45.92" y1="173.1" x2="49.26" y2="176.89"/>
	</g>
	<g>
		<path class="st16" d="M132.36,293.72c-7.04,0-10.76-15.97-5.87-15.65C131.38,278.4,136.93,293.72,132.36,293.72z"/>
		<g>
			<path class="st0" d="M139.06,293.53c0,0,0.47-12.48-8.54-18.37c-12.27-8.02-15.38-11.96-7.26-14.52
				c8.12-2.56,17.78,2.29,20.93,13.24c1.95,6.77-1.28,19.65-1.28,19.65"/>
			<path class="st0" d="M123.26,260.64c0,0,10.33,4.52,13.82,10.41c6.04,10.19,4.34,22.46,4.34,22.46"/>
			<line class="st0" x1="137.55" y1="271.88" x2="138.07" y2="264.59"/>
			<line class="st0" x1="139.11" y1="274.22" x2="140.15" y2="267.06"/>
			<line class="st0" x1="118.81" y1="264.33" x2="129.22" y2="264.33"/>
			<line class="st0" x1="136.25" y1="280.6" x2="141.2" y2="283.46"/>
			<path class="st0" d="M145.29,293.47c0,0,0.53-3.86,3.58-5.23"/>
		</g>
		<line class="st0" x1="126.91" y1="280.3" x2="132.42" y2="293.42"/>
	</g>
	<g>
		<g>
			<path class="st17" d="M233.72,92.86c0,0,1.85-2.36,2.73-3.24c2.91-2.89,6.45-3.45,8-6.72c1.58-3.33-0.71-11.16-8.63-10.33
				c-6.76,0.71-7.01,7.75-6.93,10.83c0.08,3.08-1.53,5.5-1.53,5.5s1.33-0.5,3.68,1.27C233.4,91.93,233.72,92.86,233.72,92.86z"/>
			<path class="st0" d="M233.72,92.86c0,0-2.1,3.57-5.68,1.47s-0.67-5.44-0.67-5.44s1.4-0.3,3.68,1.27
				C233.34,91.73,233.72,92.86,233.72,92.86z"/>
			<line class="st0" x1="229.31" y1="89.2" x2="232.12" y2="82.35"/>
			<line class="st0" x1="232.34" y1="90.7" x2="237.65" y2="85.19"/>
			<path class="st0" d="M232.05,83.06c0,0,1.35,0.97,3.34-0.31c0,0-0.45,3.22,1.44,3.22"/>
			<path class="st0" d="M226.58,91.15c0,0,3.84-0.51,5.66,3.4"/>
		</g>
		<path class="st13" d="M240.52,75.82c0,0,3.15,2.12,2.41,5.82"/>
	</g>
	<circle class="st0" cx="248.2" cy="124.52" r="1.77"/>
	<circle class="st0" cx="125.33" cy="239.49" r="1.77"/>
	<circle class="st0" cx="259.97" cy="275.51" r="1.77"/>
	<circle class="st8" cx="260.28" cy="33.1" r="1.1"/>
	<circle class="st8" cx="362.89" cy="168.48" r="1.1"/>
	<circle class="st0" cx="382.74" cy="266.73" r="1.77"/>
	<circle class="st0" cx="79.03" cy="187.22" r="1.77"/>
	<circle class="st0" cx="32.28" cy="86.42" r="1.77"/>
	<circle class="st0" cx="168.86" cy="81.68" r="1.77"/>
	<polygon class="st0" points="300.05,206.24 308.16,200.73 307.49,210.78 304.66,206.86 	"/>
	<g>
		<path class="st2" d="M116.17,32.94H98.04c-1.04,0-1.89,0.84-1.89,1.89v0.03h21.9v-0.03C118.06,33.79,117.21,32.94,116.17,32.94z"
			/>
		<path class="st14" d="M116.84,55.28H97.37c-0.67,0-1.21-0.54-1.21-1.21V34.86h21.9v19.21C118.06,54.74,117.51,55.28,116.84,55.28z
			"/>
		<path class="st2" d="M115.09,45.34H99.4c-0.39,0-0.7-0.31-0.7-0.7v-6.23c0-0.39,0.31-0.7,0.7-0.7h15.7c0.39,0,0.7,0.31,0.7,0.7
			v6.23C115.8,45.03,115.48,45.34,115.09,45.34z"/>
		<line class="st0" x1="115.37" y1="51.69" x2="99.1" y2="51.69"/>
		<line class="st0" x1="115.37" y1="48.05" x2="99.1" y2="48.05"/>
	</g>
	<g>
		<rect x="260.34" y="81.28" class="st0" width="7.56" height="7.56"/>
		<rect x="267.9" y="74.1" class="st15" width="7.56" height="7.56"/>
	</g>
	<g>
		<polygon class="st0" points="99.71,215.42 104.97,215.42 104.97,220.72 99.71,220.72 		"/>
		
			<rect x="94.41" y="220.45" transform="matrix(-1 -1.224647e-16 1.224647e-16 -1 194.1207 446.2075)" class="st7" width="5.3" height="5.3"/>
	</g>
	<g>
		<polygon class="st0" points="374.29,48.61 379.55,48.62 379.55,53.92 374.29,53.91 		"/>
		
			<rect x="368.99" y="53.65" transform="matrix(-1 -1.224647e-16 1.224647e-16 -1 743.274 112.6003)" class="st7" width="5.3" height="5.3"/>
	</g>
	<g>
		<path class="st2" d="M313.65,45.51h-0.31c-4.7,0-8.5-3.81-8.5-8.5V36.7c0-4.7,3.81-8.5,8.5-8.5h0.31c4.7,0,8.5,3.81,8.5,8.5V37
			C322.16,41.7,318.35,45.51,313.65,45.51z"/>
		<g>
			<g>
				<path class="st4" d="M309.02,38.45c0.86,0.86,1.72,1.72,2.57,2.57c0.41,0.41,1.12,0.41,1.53,0c1.69-1.69,3.38-3.38,5.07-5.07
					c0.24-0.24,0.48-0.48,0.72-0.72c0.99-0.99-0.54-2.52-1.53-1.53c-1.69,1.69-3.38,3.38-5.07,5.07c-0.24,0.24-0.48,0.48-0.72,0.72
					c0.51,0,1.02,0,1.53,0c-0.86-0.86-1.72-1.72-2.57-2.57C309.56,35.93,308.03,37.46,309.02,38.45L309.02,38.45z"/>
			</g>
		</g>
	</g>
	<line class="st0" x1="300.81" y1="100.89" x2="310.28" y2="100.89"/>
	<line class="st0" x1="89.02" y1="277.77" x2="98.49" y2="277.77"/>
	<line class="st0" x1="311.63" y1="226.03" x2="318.42" y2="226.03"/>
	<g>
		<path class="st14" d="M328.51,174.03h-50.24c-1.79,0-3.24-1.45-3.24-3.24v-16.56l-7.66-4.91l7.66-4.09v-16.55
			c0-1.79,1.45-3.24,3.24-3.24h50.24c1.79,0,3.24,1.45,3.24,3.24v42.12C331.75,172.58,330.3,174.03,328.51,174.03z"/>
		<path class="st15" d="M322.87,166.5h-38.6c-0.97,0-1.76-0.79-1.76-1.76v-30.42c0-0.97,0.79-1.76,1.76-1.76h38.6
			c0.97,0,1.76,0.79,1.76,1.76v30.42C324.63,165.71,323.84,166.5,322.87,166.5z"/>
		<path class="st7" d="M308.86,158.72c0,0,12.2,1.33,13.97,7.78H284.3c0,0,7.03-7.78,15.76-7.78S308.86,158.72,308.86,158.72z"/>
		<path class="st5" d="M299.5,136.3c-1.53,1.27-5.61,9.52-5.22,13.81s6.3,5.39,6.3,5.39l-0.88,3.08l-0.08,2.15
			c-0.05,1.44,1.36,2.48,2.72,1.99l6.37-2.3l2.68-8.31c0,0,5.26-11.7,3.12-13.84C312.37,136.1,304.18,132.4,299.5,136.3z"/>
		<path class="st8" d="M297.75,138.69c-2.93-1.02-6-4.1-2.56-8.28c2.11-2.57,8.46-1.06,10.66,0.91c2.89,2.6,4.62,4.88,8.96,4.34
			c2.31-0.29,4.14,1.21,3.47,3.76c-0.7,2.68-5.46,15.48-7.99,15.68c-1.17,0.09-0.71,0.28-1.45-0.18c-0.87-0.54,1.18-4.8,1.18-4.8
			l2.44-6.43L297.75,138.69z"/>
		<path class="st5" d="M310.89,146.72c0,0,1.92-1.03,2.45,1.05c0.65,2.58-3.03,4.11-3.86,3.5
			C308.66,150.66,310.89,146.72,310.89,146.72z"/>
		<path class="st8" d="M301.41,139.16c-1.81,0.18-2.92,2.06-0.75,2.42c2.17,0.36,6.68,0.39,6.68,0.39L301.41,139.16z"/>
		<path class="st0" d="M304.45,146.32c0,0,1.53-0.97,2.08,0.56"/>
		<path class="st0" d="M296.39,144.24c0,0,1.39-1.67,1.67,0.28"/>
		<polyline class="st0" points="299.87,144.93 297.78,147.71 299.17,148.13 		"/>
		<path class="st0" d="M299.48,150.38c0,0,1.87,1.47,3.61,0"/>
	</g>
	<g>
		<path class="st3" d="M325.81,130.15l-4.38,4.54l-15.64,14.85c0,0-2.23,6.31-1.88,7.25c0.35,0.94,7.55,0.24,7.55,0.24
			s5.83-5.16,18.38-17.54c3.89-3.83-4.07,5.34-1.63,2.64c3.95-4.38,4.65-5.32,4.65-5.32L325.81,130.15z"/>
		<g>
			<path class="st5" d="M305.79,149.54c0,0-2.23,6.31-1.88,7.25c0.35,0.94,7.55,0.24,7.55,0.24l-1.77-0.76
				c-0.28-0.12-0.5-0.35-0.6-0.64l-0.71-2.07l-1.71-1.09c-0.25-0.16-0.43-0.42-0.48-0.71L305.79,149.54z"/>
		</g>
		<path class="st6" d="M325.81,130.15l-4.38,4.54c0,0,1.14,2.17,3.19,4.38c1.7,1.83,3.59,3.06,3.59,3.06
			c3.95-4.38,4.65-5.32,4.65-5.32s-1.4-1.15-3.72-3.41C326.82,131.15,325.81,130.15,325.81,130.15z"/>
		<path class="st7" d="M333.06,128.28c-1.47-1.37-2.42-1.99-3.11-1.78c-0.69,0.21-4.14,3.65-4.14,3.65s5.45,6.53,7.05,6.67
			s3.26-2.68,3.32-3.56C336.28,132.09,336.12,131.13,333.06,128.28z"/>
		<path class="st0" d="M311.47,157.04c0,0-3.78,0.49-6.02,0.26c-0.75-0.07-1.32-0.23-1.53-0.51c-0.21-0.28-0.2-0.87-0.06-1.6
			c0.41-2.19,1.94-5.65,1.94-5.65"/>
		<path class="st8" d="M303.85,155.19c-0.14,0.73-0.15,1.32,0.06,1.6c0.21,0.28,0.79,0.43,1.53,0.51c0,0,0.14-0.6-0.51-1.28
			S303.85,155.19,303.85,155.19z"/>
		<path class="st0" d="M306.69,152.47c0,0,8.06-6.76,12.39-11.63"/>
		<line class="st0" x1="312.51" y1="152.7" x2="325.38" y2="141.91"/>
		<polyline class="st0" points="309.1,155.63 308.4,153.56 306.46,152.41 		"/>
		<path class="st0" d="M326.89,140.99c0,0-2.53-1.48-5.46-6.29"/>
		<path class="st0" d="M326.88,136.01c0,0-2.58-2.74-3.52-4.42"/>
		<path class="st0" d="M331.91,136.59c0,0-2.42-1.54-5.23-5.4"/>
	</g>
	<circle class="st8" cx="58.34" cy="133.27" r="2.29"/>
	<circle class="st8" cx="133.97" cy="131.19" r="2.29"/>
	<circle class="st8" cx="117.74" cy="203.67" r="2.29"/>
	<circle class="st8" cx="369.16" cy="112.32" r="2.29"/>
	<circle class="st8" cx="375.43" cy="215.63" r="2.29"/>
	<line class="st0" x1="55.39" y1="114.19" x2="62.1" y2="153.68"/>
	<polygon class="st8" points="39.54,142.34 47.65,136.83 46.98,146.89 44.15,142.96 	"/>
	<g>
		<polyline class="st15" points="353.62,252.23 349.73,252.23 349.73,244.32 353.43,244.32 		"/>
		<path class="st0" d="M355.08,239.33L355.08,239.33c0.83,0,1.5,0.6,1.5,1.34v2.96h5.13c1.26,0,2.29,0.92,2.29,2.05v4.49
			c0,1.13-1.03,2.05-2.29,2.05h-8.09l-0.04-11.55C353.58,239.93,354.25,239.33,355.08,239.33z"/>
	</g>
	<g>
		<polyline class="st15" points="5.08,82.97 2.36,82.97 2.36,76.82 4.95,76.82 		"/>
		<path class="st0" d="M6.1,72.93L6.1,72.93c0.58,0,1.05,0.47,1.05,1.05v2.3h3.59c0.88,0,1.6,0.72,1.6,1.6v3.5
			c0,0.88-0.72,1.6-1.6,1.6H5.08l-0.03-9C5.05,73.4,5.52,72.93,6.1,72.93z"/>
	</g>
</g>
</svg>
